<?xml version="1.0" encoding="UTF-8" standalone="no"?>
<svg
   xmlns:dc="http://purl.org/dc/elements/1.1/"
   xmlns:cc="http://creativecommons.org/ns#"
   xmlns:rdf="http://www.w3.org/1999/02/22-rdf-syntax-ns#"
   xmlns:svg="http://www.w3.org/2000/svg"
   xmlns="http://www.w3.org/2000/svg"
   xmlns:sodipodi="http://sodipodi.sourceforge.net/DTD/sodipodi-0.dtd"
   xmlns:inkscape="http://www.inkscape.org/namespaces/inkscape"
   inkscape:version="1.0 (4035a4fb49, 2020-05-01)"
   height="16"
   width="16"
   sodipodi:docname="siddata_new_white.svg"
   xml:space="preserve"
   viewBox="0 0 16 16"
   y="0px"
   x="0px"
   id="Ebene_1"
   version="1.1"><metadata
   id="metadata65"><rdf:RDF><cc:Work
       rdf:about=""><dc:format>image/svg+xml</dc:format><dc:type
         rdf:resource="http://purl.org/dc/dcmitype/StillImage" /><dc:title></dc:title></cc:Work></rdf:RDF></metadata><defs
   id="defs63" /><sodipodi:namedview
   scale-x="0.6"
   inkscape:current-layer="Ebene_1"
   inkscape:window-maximized="1"
   inkscape:window-y="-8"
   inkscape:window-x="-8"
   inkscape:cy="9.6466204"
   inkscape:cx="6.4452283"
   inkscape:zoom="24.701188"
   showgrid="false"
   id="namedview61"
   inkscape:window-height="1017"
   inkscape:window-width="1920"
   inkscape:pageshadow="2"
   inkscape:pageopacity="0"
   guidetolerance="10"
   gridtolerance="10"
   objecttolerance="10"
   borderopacity="1"
   bordercolor="#666666"
   pagecolor="#ffffff" />
<style
   id="style2"
   type="text/css">
	.st0{fill:#24437C;}
</style>










<g
   style="fill:#ffffff"
   transform="matrix(0.57346224,0,0,0.57386429,0.0068299,0.5854924)"
   id="g95"><path
     style="fill:#ffffff"
     class="st0"
     d="M 19.942129,4.6250043 C 19.55805,5.7639332 18.62075,6.439394 18.103235,6.7381201 c 0.378386,0.7499962 0.449509,1.5546675 0.458075,1.9710751 0.53807,-0.028401 1.177158,0.1221123 1.902288,0.6174545 L 20.159754,9.7714835 C 18.255968,8.4709302 17.137766,9.9945021 17.091093,10.059816 L 16.65081,9.7495547 c 0.0083,-0.01186 0.501099,-0.692296 1.371893,-0.9478464 -0.0025,-0.459363 -0.09054,-1.8283787 -1.006687,-2.6076484 -0.651556,-0.5543675 -1.606114,-0.7135692 -2.839593,-0.4743772 0,1.9904337 0,4.8241503 0,7.5503203 0.443036,0.554601 1.266734,1.396098 2.282409,1.550324 1.162657,0.176761 2.084745,-0.0028 2.740547,-0.533512 0.945152,-0.764557 1.030899,-2.025959 1.031555,-2.038544 l 0.537888,0.03032 c -0.0029,0.05213 -0.0716,1.119994 -0.802365,2.002232 0.452443,0.122112 1.490048,0.32044 2.315127,-0.133978 0.520988,-0.287013 0.881758,-0.797756 1.075357,-1.518333 -0.215465,-0.120435 -0.406788,-0.270232 -0.572046,-0.450589 -0.780495,-0.851915 -0.685583,-2.04801 -0.681093,-2.098457 l 0.536691,0.04626 c -8.96e-4,0.01006 -0.07627,1.017296 0.544422,1.691377 0.11438,0.124271 0.248297,0.228165 0.396958,0.31601 l 0.199047,0.08676 c 0.01169,0.0049 1.226772,0.518535 2.215666,-0.0081 0.519609,-0.276945 0.846227,-0.665331 0.998478,-1.187462 0.04716,-0.161902 0.07448,-0.32919 0.08694,-0.498399 C 27.103094,9.670105 26.830948,8.7334004 25.973339,8.5032835 26.470957,6.7297878 25.27037,4.8767252 23.773071,4.5295277 24.079554,5.5698872 24.022215,6.4505668 23.597813,7.1526318 22.8263,8.4285937 21.144335,8.6086502 21.073088,8.6156578 l -0.05339,-0.5360594 c 0.01486,-0.00158 1.48933,-0.1634841 2.118774,-1.2084332 0.367598,-0.6104784 0.284977,-1.27033 0.05231,-2.3975763 -0.04207,0.00165 0.04218,-0.00422 0,0 C 23.075684,3.2603328 21.51313,1.7079105 19.79731,2.0597775 c 0.360647,0.9169905 0.410616,1.7770298 0.144819,2.5652268 z"
     id="path4" /><path
     style="fill:#ffffff"
     class="st0"
     d="m 17.367798,5.7860765 c 0.175682,0.1499124 0.325176,0.3160348 0.4534,0.4909067 0.443458,-0.256206 1.284349,-0.8515906 1.611986,-1.8283176 0.268675,-0.8012903 0.143924,-1.7087214 -0.368857,-2.7005234 -0.801265,-1.2956213 -2.738884,-2.108633 -4.014733,-0.9718089 -1.171447,1.0437981 -0.873171,2.9998841 -0.873171,4.3963571 1.354934,-0.2425175 2.428014,-0.037661 3.191375,0.6133861 z"
     id="path6" /><g
     style="fill:#ffffff"
     id="g12">
	<path
   style="fill:#ffffff"
   class="st0"
   d="m 20.968674,19.330345 c -0.03913,0.05054 -0.09065,0.09718 -0.134484,0.146326 0.09071,-0.0033 0.181855,-0.0055 0.273852,-0.006 -0.04957,-0.04627 -0.08675,-0.0945 -0.139368,-0.140282 z"
   id="path8" />
	<path
   style="fill:#ffffff"
   class="st0"
   d="m 26.971666,12.134885 c -0.197849,0.214759 -0.436966,0.400399 -0.721744,0.552098 -0.46584,0.248273 -0.95744,0.31408 -1.391415,0.299978 -0.367494,-0.0051 -0.701904,-0.05372 -1.001516,-0.145959 -0.238077,0.830648 -0.680231,1.428774 -1.318464,1.779177 -0.881226,0.483836 -2.065365,0.443725 -2.990021,0.09517 l 0.01013,-0.02686 c -0.0052,0.0042 -0.01007,0.0087 -0.01532,0.01294 -0.8853,0.719444 -2.076069,0.816754 -3.165342,0.65142 -0.655632,-0.09957 -1.225555,-0.428419 -1.692677,-0.805133 0.448503,0.59074 1.04608,1.491897 1.514422,2.634368 1.339282,-1.092169 3.722629,-1.93576 3.722629,-1.93576 0,0 0.505154,1.867511 0.200596,4.165515 1.200708,-0.919347 0.926125,-2.449764 0.910681,-2.529611 L 21.5621,16.778084 c 0.0035,0.01764 0.200534,1.083805 -0.304009,2.091488 0.238262,0.202121 0.445513,0.410593 0.63097,0.623214 1.283547,0.07594 2.447933,0.318659 2.447933,0.318659 0,0 -0.466632,1.677599 -1.757324,3.392921 -0.0384,0.09438 -0.07655,0.189488 -0.119037,0.276171 1.092046,-0.156216 2.410572,-1.064148 2.928667,-2.534313 l -0.0052,-0.0019 c 0.0054,-0.01471 0.531707,-1.48225 -0.139735,-2.734543 -0.432325,-0.806292 -1.270483,-1.362663 -2.491031,-1.65385 l 0.12496,-0.524079 c 1.379207,0.329098 2.335792,0.97777 2.843267,1.928068 0.228676,0.428297 0.340023,0.870268 0.382999,1.283671 0.559363,-0.572121 1.277504,-1.598971 0.730658,-2.588583 1.652691,-1.322128 1.175129,-3.6777 0.136497,-4.520131 z"
   id="path10" />
</g><g
     style="fill:#ffffff"
     id="g44">
	<path
   style="fill:#ffffff"
   class="st0"
   d="m 13.049851,15.346595 c -0.0034,-0.0064 -0.0068,-0.01284 -0.01024,-0.01922 -0.01201,-0.02209 -0.0088,-0.0352 0.0075,-0.05294 0.120383,-0.131446 0.239433,-0.264122 0.35967,-0.395697 0.0141,-0.01542 0.0157,-0.02516 0.0021,-0.0423 -0.07372,-0.09297 -0.146829,-0.186468 -0.218243,-0.281214 -0.01618,-0.02145 -0.02787,-0.02064 -0.04929,-0.0091 -0.154778,0.08311 -0.310479,0.164502 -0.465292,0.247551 -0.05672,0.03041 -0.337986,-0.182285 -0.324368,-0.243428 0.0018,-0.0083 0.155456,-0.535953 0.08953,-0.561949 -0.108311,-0.04268 -0.216195,-0.08652 -0.323413,-0.131873 -0.06497,-0.02749 -0.325048,0.459274 -0.329115,0.465855 -0.01307,0.02114 -0.02561,0.026 -0.0494,0.02065 -0.100406,-0.02257 -0.20233,-0.03555 -0.305186,-0.03793 -0.08395,-0.0019 -0.20028,-0.516284 -0.208136,-0.541298 -0.0068,-0.02163 -0.01508,-0.02799 -0.03812,-0.02456 -0.116421,0.01734 -0.233012,0.03358 -0.349801,0.04821 -0.02564,0.0032 -0.03303,0.01189 -0.03378,0.03768 -0.0051,0.175711 -0.0126,0.351346 -0.0178,0.527057 -7.93e-4,0.02692 -0.0091,0.03905 -0.03566,0.04722 -0.438505,0.134696 -0.375834,0.07958 -0.731753,-0.247151 -0.1344564,-0.01513 -0.2412899,0.0558 -0.3205011,0.21278 -0.02188,0.01657 -0.027122,0.02729 -0.01266,0.05391 0.08439,0.155306 0.1656542,0.312305 0.249301,0.468022 0.011158,0.02077 0.00975,0.03318 -0.00607,0.0503 -0.070713,0.07658 -0.1336403,0.159431 -0.1879969,0.248337 -0.013992,0.02289 -0.027865,0.02635 -0.052495,0.02087 -0.1736965,-0.03869 -0.3478289,-0.07548 -0.5215511,-0.114081 -0.021009,-0.0047 -0.029538,-8.6e-5 -0.037384,0.01967 -0.043821,0.110275 -0.088146,0.22037 -0.1346045,0.329551 -0.01057,0.02483 -0.00394,0.03464 0.016587,0.04738 0.150527,0.0933 0.3000975,0.188141 0.4506502,0.281393 0.01955,0.01211 0.0255,0.02309 0.02025,0.04642 -0.011901,0.05296 -0.021266,0.106338 -0.027798,0.160054 l 0.4353771,0.194604 c 0.042367,-1.61162 2.3913383,-1.928938 2.8556013,-0.383257 z"
   id="path14" />
	<path
   style="fill:#ffffff"
   class="st0"
   d="m 8.2975054,15.462232 0.8945551,0.39985 c 0.00434,-0.0185 0.00874,-0.03699 0.013338,-0.05543 0.00614,-0.02465 0.00179,-0.03504 -0.022111,-0.04514 -0.1631536,-0.06888 -0.3254442,-0.139796 -0.48841,-0.209126 -0.020344,-0.0086 -0.0297,-0.01739 -0.027993,-0.04218 0.00715,-0.103761 0.00475,-0.207665 -0.00871,-0.310803 -0.00362,-0.02771 0.00357,-0.04034 0.027788,-0.05225 0.1587572,-0.0781 0.3165579,-0.158151 0.4753485,-0.23618 0.021283,-0.01046 0.02416,-0.02045 0.017535,-0.04184 0.026922,-0.178414 -0.021051,-0.300253 -0.143919,-0.365518 -0.1743965,0.02198 -0.3490839,0.04175 -0.5235748,0.06304 -0.023972,0.0029 -0.037888,-9.48e-4 -0.049976,-0.02572 -0.045588,-0.09345 -0.1003284,-0.181782 -0.1634607,-0.264481 -0.015256,-0.01999 -0.014051,-0.03343 -7.086e-4,-0.05347 0.098783,-0.148358 0.1960554,-0.297724 0.2946854,-0.446193 0.011568,-0.01741 0.011644,-0.02728 -0.00441,-0.04213 -0.06609,-0.170921 -0.1690645,-0.252871 -0.3089247,-0.245852 -0.1401978,0.105877 -0.2815638,0.210201 -0.4217949,0.316019 -0.019918,0.01503 -0.034063,0.01819 -0.056456,0.0031 -0.086328,-0.05838 -0.1780167,-0.107611 -0.2742133,-0.147675 -0.023503,-0.0098 -0.028761,-0.02224 -0.027216,-0.04614 0.011457,-0.176394 0.020822,-0.352917 0.032723,-0.529277 0.00179,-0.02644 -0.00626,-0.03431 -0.030477,-0.03976 -0.1135864,-0.02556 -0.2269173,-0.05232 -0.3398209,-0.08068 -0.024783,-0.0062 -0.035019,-0.0014 -0.044999,0.02228 -0.00825,0.01954 -0.1768222,0.521755 -0.2543731,0.516556 -0.1026759,-0.0069 -0.2053862,-0.0041 -0.3073969,0.0093 -0.027293,0.0036 -0.040261,-0.0033 -0.052273,-0.02775 -0.078101,-0.158772 -0.1581872,-0.316547 -0.2364557,-0.47521 -0.01004,-0.02034 -0.019208,-0.02534 -0.04144,-0.01841 -0.1123829,0.03498 -0.2251072,0.06894 -0.3382583,0.101309 -0.024843,0.0071 -0.030819,0.01683 -0.027601,0.04243 0.021957,0.174405 0.041473,0.349118 0.063286,0.523541 0.00334,0.02673 -0.00295,0.03998 -0.027993,0.05214 -0.091501,0.04443 -0.1780505,0.09772 -0.2588549,0.159592 -0.021394,0.01637 -0.036018,0.01762 -0.059324,0.002 -0.1469927,-0.09876 -0.2955389,-0.195193 -0.4428301,-0.293515 -0.019013,-0.01269 -0.02918,-0.01174 -0.044684,0.0051 -0.078867,0.08564 -0.1584411,0.170666 -0.2393646,0.254355 -0.019089,0.01973 -0.022615,0.03112 -0.00423,0.05522 0.1072178,0.140512 0.2116103,0.283186 0.318162,0.424227 0.014206,0.0188 0.014718,0.03127 0.00172,0.05063 -0.058121,0.08652 -0.107585,0.178042 -0.1476498,0.274238 -0.010313,0.02476 -0.023494,0.03032 -0.04867,0.02868 -0.1775894,-0.01157 -0.355299,-0.02121 -0.5328884,-0.0327 -0.02148,-0.0014 -0.029197,0.0045 -0.033927,0.02518 -0.02638,0.115686 -0.05328,0.231288 -0.082426,0.346301 -0.00663,0.02617 0.00142,0.03484 0.023656,0.04427 0.015928,0.0067 0.5205197,0.178621 0.5156345,0.251683 0.058071,0.136792 0.051449,0.257515 -0.019865,0.362172 -0.1575446,0.07799 -0.3143463,0.15745 -0.4719677,0.235266 -0.021078,0.01041 -0.027686,0.01926 -0.020019,0.04363 0.035327,0.112264 0.069228,0.225022 0.1013446,0.338241 0.00744,0.02625 0.018653,0.0294 0.043275,0.02633 0.1744223,-0.02183 0.3491006,-0.0416 0.5235825,-0.06295 0.024254,-0.003 0.037948,0.0016 0.049814,0.02594 0.04552,0.09351 0.1000042,0.181986 0.1631622,0.264667 0.015529,0.02033 0.013318,0.03373 1.879e-4,0.05346 -0.098783,0.14836 -0.1961493,0.297665 -0.2948303,0.446093 -0.011542,0.01736 -0.011628,0.02714 0.00441,0.04196 0.088009,0.08128 0.1753445,0.163315 0.2615266,0.246527 0.017186,0.01659 0.027832,0.0145 0.044923,0.0016 0.1431336,-0.107662 0.287138,-0.214163 0.4300156,-0.322157 0.017664,-0.01335 0.029615,-0.01418 0.047757,-0.002 0.088513,0.05926 0.1819863,0.109769 0.280138,0.151157 0.020182,0.0085 0.025859,0.019 0.024425,0.04103 -0.011593,0.178665 -0.021334,0.357448 -0.032552,0.536131 -0.00135,0.02152 0.00276,0.0313 0.026192,0.03652 0.115849,0.02588 0.2313824,0.05324 0.3464971,0.08222 0.024561,0.0062 0.033005,-4.28e-4 0.042173,-0.02215 0.069356,-0.164187 0.1401801,-0.327742 0.210227,-0.491646 0.00713,-0.01668 0.01348,-0.0282 0.036471,-0.02651 0.1365538,-0.06093 0.2570667,-0.0577 0.3615394,0.0097 0.020532,0.04331 0.042831,0.08576 0.064473,0.128544 0.064404,0.127287 0.1288166,0.25456 0.1932383,0.38184 0.1313777,-0.03936 0.2627559,-0.07875 0.3941169,-0.118128 -2.904e-4,-0.0068 -1.364e-4,-0.01373 -9.475e-4,-0.0205 -0.021001,-0.176821 -0.041431,-0.353728 -0.063841,-0.530379 -0.00383,-0.03019 0.00219,-0.04648 0.031348,-0.0602 0.092142,-0.04329 0.1778803,-0.09794 0.2589231,-0.159431 0.020233,-0.01537 0.033645,-0.0136 0.053503,-3.76e-4 0.050514,0.03365 0.1011906,0.06706 0.1518669,0.100449 l 0.1640415,-1.305192 z m -1.1183205,1.344781 c -1.8016396,0.533359 -2.6369805,-2.261205 -0.8346591,-2.798348 1.8022561,-0.537164 2.6403031,2.263798 0.8346591,2.798348 z"
   id="path16" />
	<path
   style="fill:#ffffff"
   class="st0"
   d="m 6.8581991,19.085062 c -0.010499,-0.02399 -0.021183,-0.02784 -0.045967,-0.02118 -0.1697683,0.04554 -0.340147,0.08888 -0.510098,0.133751 -0.023381,0.0062 -0.037665,0.0042 -0.053049,-0.01868 -0.057871,-0.08632 -0.1241059,-0.16641 -0.1979709,-0.239727 -0.017826,-0.0177 -0.018436,-0.03119 -0.00794,-0.05287 0.07765,-0.160427 0.1536517,-0.321649 0.2311802,-0.482199 0.00903,-0.0188 0.00781,-0.02857 -0.010134,-0.04115 -0.097246,-0.06794 -0.1941257,-0.136558 -0.2896619,-0.206823 -0.021671,-0.01593 -0.032659,-0.01178 -0.049874,0.0054 -0.1244726,0.123983 -0.2502875,0.246563 -0.3748207,0.370485 -0.017703,0.01758 -0.031256,0.02265 -0.055491,0.01074 -0.093461,-0.04609 -0.1910119,-0.08241 -0.2917986,-0.108967 -0.024601,-0.0065 -0.031499,-0.01813 -0.033209,-0.042 -0.012697,-0.176362 -0.027471,-0.352478 -0.03968,-0.52884 -0.00183,-0.02643 -0.010866,-0.03315 -0.03559,-0.03523 -0.1160479,-0.0098 -0.2319736,-0.02094 -0.3476553,-0.03364 -0.025395,-0.0028 -0.034857,0.0034 -0.041572,0.0282 -0.045968,0.170988 -0.094194,0.341429 -0.1402221,0.512417 -0.00647,0.02399 -0.017093,0.03223 -0.04145,0.03394 -0.1026177,0.0071 -0.2040148,0.02393 -0.3032141,0.0511 -0.026555,0.0073 -0.040351,0.0022 -0.055613,-0.02033 -0.098955,-0.146631 -0.1998029,-0.292042 -0.2989411,-0.438614 -0.012697,-0.01874 -0.022465,-0.02247 -0.043525,-0.01258 -0.106586,0.05 -0.2136602,0.09896 -0.3213449,0.14645 -0.023625,0.01038 -0.028264,0.02081 -0.021549,0.04578 0.045479,0.169767 0.088638,0.340208 0.1339953,0.510036 0.00696,0.02601 0.0025,0.03999 -0.020634,0.05543 -0.084609,0.05653 -0.1631141,0.121115 -0.2347207,0.193394 -0.018985,0.01911 -0.03327,0.02234 -0.058482,0.01001 -0.159085,-0.07777 -0.3193913,-0.153103 -0.4787204,-0.230447 -0.020511,-0.01001 -0.030462,-0.0077 -0.043526,0.01111 -0.066479,0.0956 -0.1337512,0.190645 -0.2025497,0.284593 -0.016177,0.02216 -0.018131,0.03388 0.00336,0.05531 0.1253269,0.124595 0.2482121,0.251692 0.3729894,0.376898 0.016604,0.01673 0.018802,0.029 0.00855,0.04993 -0.045784,0.09365 -0.082289,0.191075 -0.1089056,0.2918 -0.00684,0.02594 -0.019168,0.03327 -0.044319,0.03504 -0.177521,0.01276 -0.3548589,0.02741 -0.5323796,0.04017 -0.021488,0.0016 -0.028325,0.0084 -0.030157,0.02954 -0.010378,0.118246 -0.021305,0.236431 -0.034491,0.354309 -0.00305,0.02686 0.0061,0.03437 0.029424,0.04066 0.170989,0.04627 0.3414288,0.09426 0.5124178,0.140467 0.022221,0.006 0.031072,0.01477 0.032721,0.03864 0.0072,0.103779 0.023808,0.206396 0.051584,0.306633 0.00775,0.02802 -7.324e-4,0.04047 -0.021976,0.05488 -0.1454108,0.09871 -0.2899671,0.198826 -0.4355001,0.297354 -0.019474,0.01319 -0.024846,0.02283 -0.013918,0.04597 0.050302,0.106403 0.09926,0.213478 0.1464486,0.321283 0.010988,0.02497 0.022526,0.02656 0.046456,0.02021 0.1698291,-0.04542 0.3402078,-0.08876 0.510159,-0.13369 0.023625,-0.0062 0.037787,-0.0036 0.052866,0.01892 0.057871,0.08644 0.1238618,0.166655 0.1976659,0.239972 0.018192,0.01801 0.017825,0.03162 0.00751,0.05293 -0.07765,0.160429 -0.1537743,0.32159 -0.2313633,0.482078 -0.00903,0.0188 -0.00781,0.02851 0.010134,0.04096 0.098222,0.06855 0.1959567,0.137963 0.2926533,0.208655 0.01929,0.0141 0.029546,0.01056 0.044685,-0.0045 0.1271582,-0.126119 0.2552932,-0.251262 0.3821462,-0.377689 0.015689,-0.01563 0.02741,-0.01813 0.047067,-0.0085 0.09572,0.04664 0.1952243,0.08394 0.2980862,0.111591 0.021183,0.0057 0.028203,0.01532 0.02979,0.0373 0.01282,0.178619 0.027532,0.357055 0.040779,0.535614 0.00159,0.02149 0.00696,0.03058 0.030889,0.0326 0.1183066,0.0099 0.2364912,0.02124 0.3544927,0.03425 0.025151,0.0028 0.032598,-0.0049 0.038764,-0.02765 0.046333,-0.172089 0.094254,-0.343809 0.1413207,-0.515715 0.00476,-0.01746 0.00952,-0.02979 0.032538,-0.03119 0.1095772,-0.007 0.2174449,-0.02594 0.3235421,-0.05409 0.018009,-0.0048 0.036,-0.01041 0.036,-0.01041 -0.018178,-0.08106 -0.093141,-0.316744 -0.153635,-0.425879 -0.00122,-0.0023 4.888e-4,-0.0041 -6.714e-4,-0.0063 -1.668792,0.423547 -2.5383399,-2.017489 -0.9626298,-2.732956 0.3196049,-0.145163 0.6848435,-0.168947 1.0206051,-0.06707 0.3682675,0.111736 0.5168262,0.485512 0.8070207,0.610996 0.1507587,0.06519 0.9520226,0.05607 1.0858421,-0.03364 0.019657,-0.01325 0.021122,-0.02357 0.01166,-0.04383 -0.049813,-0.106647 -0.098894,-0.213661 -0.1463882,-0.321346 z"
   id="path18" />
	<path
   style="fill:#ffffff"
   class="st0"
   d="m 7.8573537,17.945669 c -0.047772,-0.01931 -0.095696,-0.03823 -0.1434278,-0.05761 -0.00633,-0.0026 -0.00923,-0.0016 -0.012729,0.0042 -0.019499,0.03215 -0.039143,0.06423 -0.05941,0.09591 -0.00461,0.0072 -0.00306,0.01062 0.00269,0.01568 0.042122,0.03708 0.083877,0.07459 0.1260166,0.111666 0.00547,0.0048 0.00675,0.0085 0.00389,0.01557 -0.012473,0.0305 -0.022111,0.06201 -0.028258,0.09439 -0.00171,0.0091 -0.00587,0.01141 -0.013924,0.01254 -0.055176,0.0077 -0.1102743,0.01593 -0.1654582,0.02357 -0.00738,0.001 -0.010253,0.003 -0.010381,0.01111 -0.026519,0.05148 -0.024172,0.09284 0.00704,0.124089 0.054638,0.01088 0.1091475,0.02239 0.1637511,0.03342 0.00759,0.0015 0.011252,0.0043 0.012387,0.01278 0.00435,0.03266 0.011884,0.06472 0.022606,0.0959 0.00264,0.0077 6.318e-4,0.01147 -0.00528,0.0161 -0.044547,0.03474 -0.088744,0.0699 -0.1332564,0.104675 -0.00521,0.0041 -0.00622,0.007 -0.00287,0.01306 0.018338,0.03325 0.036394,0.06665 0.053998,0.100277 0.00351,0.0067 0.00692,0.0071 0.013344,0.005 0.05381,-0.01807 0.1077642,-0.0357 0.161531,-0.05389 0.00332,-0.0011 0.00818,-8.12e-4 0.00818,-8.12e-4 z"
   id="path20" />
	<path
   style="fill:#ffffff"
   class="st0"
   d="m 13.638241,2.4087715 c -0.171312,-0.03937 -0.342125,-0.080914 -0.513288,-0.120975 -0.09183,-0.085442 -0.125347,-0.2007489 -0.100548,-0.3459218 -0.0075,-0.024015 -0.0017,-0.036231 0.01774,-0.050454 0.1438,-0.1053036 0.286533,-0.212073 0.430224,-0.3175348 0.01685,-0.012366 0.02032,-0.0216 0.01035,-0.041077 -0.05408,-0.1056118 -0.107444,-0.2116233 -0.158914,-0.3185258 -0.01166,-0.024207 -0.02329,-0.025697 -0.04655,-0.018619 -0.168064,0.051178 -0.336696,0.1004823 -0.504777,0.1515853 -0.02387,0.00725 -0.03824,0.00535 -0.05406,-0.016563 -0.06097,-0.084511 -0.130118,-0.1622856 -0.20666,-0.2330071 -0.01869,-0.01727 -0.01935,-0.030785 -0.0097,-0.052702 0.07145,-0.1616694 0.140985,-0.3241964 0.212856,-0.4856826 0.01077,-0.0242067 0.0059,-0.0343657 -0.01495,-0.0478222 -0.09243,-0.1502996 -0.206168,-0.2127163 -0.341225,-0.18725 -0.120792,0.1295021 -0.243275,0.257422 -0.364092,0.386899 -0.01696,0.0181696 -0.03021,0.0204762 -0.05249,0.0105754 -0.09403,-0.04181 -0.191439,-0.0745103 -0.29183,-0.0970016 -0.02687,-0.006012 -0.03666,-0.0169705 -0.03954,-0.04405 -2.79e-4,-0.002623 -0.02759,-0.5559488 -0.09107,-0.5590855 -0.117553,-0.0058123 -0.23508,-0.012732 -0.352467,-0.0212756 -0.02576,-0.0018736 -0.03472,0.0051877 -0.04051,0.0303437 -0.0394,0.1713121 -0.0812,0.3420663 -0.120725,0.5133451 -0.0061,0.0262468 -0.01654,0.0365223 -0.04422,0.0393286 -0.101206,0.0102339 -0.200806,0.0304853 -0.297967,0.0607707 -0.02572,0.008019 -0.03989,0.004155 -0.05638,-0.0185527 C 10.503445,0.4822119 10.397141,0.3405524 10.292687,0.1975439 10.279206,0.1790912 10.269321,0.1764848 10.24897,0.1869602 10.145457,0.2402366 10.041486,0.2926802 9.9366978,0.3434085 9.9119919,0.3553745 9.904764,0.3648423 9.9137324,0.3937954 10.058046,0.8594909 10.130961,0.8173814 9.8176716,1.1564186 9.799469,1.1761205 9.7851791,1.1768034 9.762105,1.1665944 9.5993452,1.0946238 9.4358025,1.0244353 9.2730169,0.9525314 9.2533236,0.9438379 9.2440643,0.9466691 9.2324972,0.9644973 9.1679211,1.064047 9.1028786,1.1633219 9.0359383,1.2612895 c -0.01523,0.022283 -0.010659,0.0332 0.00698,0.049704 0.1293182,0.1209918 0.2574129,0.2432992 0.3867741,0.3642494 0.016804,0.015713 0.020484,0.027637 0.010767,0.049488 -0.04226,0.095053 -0.075668,0.1934704 -0.098126,0.2950186 -0.00629,0.028395 -0.019627,0.035432 -0.045149,0.038213 -0.1747599,0.01901 -0.3493357,0.03967 -0.5241041,0.058497 -0.023374,0.00251 -0.032625,0.00855 -0.033808,0.034074 -0.00545,0.1175695 -0.012432,0.2350974 -0.021233,0.3524669 -0.00205,0.027204 0.0074,0.034024 0.031576,0.039603 0.171279,0.03952 0.3420916,0.081064 0.5132704,0.1210585 0.02379,0.00555 0.03509,0.014514 0.037847,0.041494 0.010567,0.1034551 0.031276,0.2052863 0.06212,0.3046446 0.00759,0.024423 9.079e-4,0.036256 -0.01822,0.050262 -0.1437998,0.1053119 -0.2865915,0.211998 -0.4303246,0.3174014 -0.016804,0.012332 -0.020251,0.021484 -0.010283,0.040919 0.054659,0.1065946 0.1084347,0.2136719 0.1607199,0.3214569 0.010426,0.021484 0.021151,0.023191 0.04161,0.017004 0.1714373,-0.051836 0.3432989,-0.1022892 0.5146112,-0.1545165 0.021184,-0.00646 0.032692,-0.00313 0.045541,0.014506 0.062719,0.086101 0.1331072,0.165683 0.2110233,0.238328 0.016013,0.014931 0.017736,0.026738 0.00882,0.046931 -0.07237,0.1637594 -0.143034,0.3282763 -0.2150545,0.4921857 -0.00867,0.019727 -0.00817,0.030327 0.012033,0.043309 0.099858,0.06416 0.1989336,0.129602 0.2970428,0.1964264 0.020934,0.014264 0.031134,0.01095 0.047222,-0.00629 0.121616,-0.1302929 0.244398,-0.2595038 0.366565,-0.3892803 0.01243,-0.013215 0.02236,-0.021842 0.04337,-0.012341 0.100058,0.045266 0.204237,0.079057 0.311148,0.1039133 0.01818,0.00422 0.02338,0.012324 0.02496,0.029603 0.0044,0.047722 0.01071,0.095261 0.0163,0.1428752 0.01667,0.1416764 0.03337,0.2833443 0.05005,0.4250202 0.136905,0.00824 0.273801,0.016471 0.410706,0.024706 0.0021,-0.00652 0.0046,-0.01294 0.0062,-0.019585 0.04113,-0.1732521 0.08282,-0.3463712 0.122557,-0.5199399 0.0068,-0.029678 0.01805,-0.04291 0.05015,-0.045741 0.101406,-0.00894 0.200723,-0.030752 0.297975,-0.060604 0.02429,-0.00746 0.03627,-0.00119 0.05036,0.018053 0.105287,0.143816 0.211948,0.2866249 0.317394,0.4303246 0.01218,0.016604 0.02117,0.020609 0.0409,0.010475 0.106602,-0.05475 0.21373,-0.1085343 0.32159,-0.1607618 0.02165,-0.010475 0.02332,-0.020959 0.01706,-0.041568 -0.05169,-0.1702213 -0.101831,-0.3409171 -0.154017,-0.5109887 -0.0074,-0.023998 -0.0024,-0.036431 0.01717,-0.050695 0.08422,-0.061387 0.162135,-0.1303015 0.232973,-0.2067351 0.01703,-0.018369 0.03039,-0.019993 0.05264,-0.010151 0.162768,0.071937 0.326319,0.1421175 0.489163,0.2138965 0.0206,0.00908 0.03063,0.00641 0.04308,-0.012982 0.06354,-0.09885 0.128128,-0.1970675 0.19407,-0.2943356 0.01426,-0.021026 0.01375,-0.032276 -0.0052,-0.049979 C 13.21521,3.5200897 13.087233,3.3976655 12.95808,3.2764905 c -0.01613,-0.01513 -0.02191,-0.026546 -0.01178,-0.049238 0.04243,-0.094961 0.07592,-0.1933537 0.09877,-0.2948186 0.0061,-0.027271 0.01724,-0.036647 0.04407,-0.039504 0.175933,-0.018703 0.351642,-0.039562 0.527584,-0.058189 0.09974,-0.093331 0.117157,-0.2219002 0.05223,-0.3857083 0.0019,-0.026139 -0.0057,-0.034508 -0.03073,-0.040262 z M 12.651196,2.5652866 C 12.533216,4.4482369 9.6171903,4.2548885 9.7363081,2.3843233 9.8554792,0.512922 12.768935,0.685884 12.651196,2.5652866 Z"
   id="path22" />
	<path
   style="fill:#ffffff"
   class="st0"
   d="m 9.3633404,3.9480407 c -0.00451,-0.025814 -0.013923,-0.032084 -0.039595,-0.031568 -0.1757507,0.00351 -0.3515348,0.00477 -0.5273018,0.00758 -0.024148,3.912e-4 -0.037579,-0.00493 -0.046989,-0.030827 C 8.6423779,3.7935457 8.5991106,3.6823881 8.6196527,3.559751 8.7335081,3.4226131 8.8459654,3.2843177 8.959671,3.1470549 8.973002,3.1309589 8.974118,3.1211579 8.959712,3.1046949 8.8815546,3.0154128 8.803997,2.9255807 8.728054,2.8344164 8.7108593,2.813782 8.6992178,2.8151641 8.6783752,2.827688 8.5278225,2.9182279 8.3762617,3.0070858 8.225667,3.097559 8.0999069,3.1009183 7.995369,3.04138 7.9120545,2.9189441 7.8897133,2.906745 7.8857913,2.8937964 7.8898463,2.8701892 c 0.029961,-0.1742015 0.05784,-0.3487694 0.08825,-0.5228877 0.00456,-0.026097 -0.00262,-0.034774 -0.02613,-0.042751 -0.1102586,-0.037372 -0.2201505,-0.075901 -0.3294425,-0.1159956 -0.023982,-0.0088 -0.034674,-0.00506 -0.047098,0.01742 C 7.4897908,2.3609825 7.402115,2.5148662 7.3164384,2.669849 7.3044144,2.691608 7.2921234,2.69707 7.2681084,2.692881 7.1667266,2.67522 7.0642877,2.667201 6.9614401,2.6698325 6.9339113,2.670532 6.9217539,2.6622882 6.9123693,2.6367242 6.9114618,2.6342521 6.7503037,2.104202 6.6879721,2.1166091 c -0.1154375,0.022975 -0.2311087,0.044866 -0.3470459,0.065151 -0.025447,0.00445 -0.032417,0.013482 -0.031909,0.039287 0.00348,0.1757422 0.0045,0.3515425 0.00784,0.5272928 5.16e-4,0.02693 -0.00714,0.039445 -0.033325,0.048905 -0.095677,0.034557 -0.1873412,0.078441 -0.2742176,0.131459 -0.022999,0.014039 -0.03768,0.01374 -0.059197,-0.00427 C 5.814333,2.810751 5.6767535,2.6992185 5.5406318,2.5859375 c -0.01757,-0.014622 -0.027788,-0.014739 -0.044974,3.748e-4 -0.087442,0.076867 -0.1755257,0.1530259 -0.2648082,0.227736 -0.021051,0.01762 -0.025764,0.02857 -0.010017,0.054467 0.09183,0.1510191 0.1806302,0.3038869 0.2717443,0.4553556 0.012149,0.020193 0.01135,0.032659 -0.00362,0.050537 C 5.4220489,3.4543219 5.3632354,3.5401408 5.3132648,3.63158 5.3003988,3.655121 5.2867098,3.659259 5.2618448,3.654979 5.0864608,3.624785 4.910752,3.596498 4.7353598,3.566379 c -0.021217,-0.00364 -0.029503,0.00136 -0.036381,0.021467 -0.038413,0.1122735 -0.077333,0.224397 -0.1184273,0.3357043 -0.00935,0.025323 -0.00226,0.034799 0.018869,0.046515 0.1548744,0.085877 0.3088828,0.1733355 0.4637909,0.2591624 0.020118,0.01115 0.026597,0.021817 0.022491,0.045382 -0.017861,0.1024809 -0.026313,0.206069 -0.023382,0.3100238 8.159e-4,0.029078 -0.010417,0.039154 -0.034491,0.048055 -0.164875,0.060979 -0.3291759,0.1234899 -0.4941096,0.1842856 -0.022058,0.00814 -0.029561,0.016238 -0.024498,0.041286 0.023324,0.1153626 0.045157,0.23105 0.065184,0.3470373 0.00464,0.02688 0.015463,0.031193 0.040261,0.030719 0.022178,-4.215e-4 0.5471234,-0.050956 0.5741076,0.023549 0.035431,0.097768 0.080298,0.1914968 0.1343985,0.2803631 0.039122,0.06428 -0.3338466,0.4516191 -0.3455806,0.4657726 -0.013298,0.016046 -0.014422,0.025764 -1.62e-5,0.042193 0.078957,0.09009 0.1571727,0.1808553 0.2341228,0.2726688 0.015338,0.018311 0.026155,0.017353 0.044499,0.00637 0.012125,-0.00726 0.4556026,-0.3168721 0.5092316,-0.272119 0.081789,0.068248 0.1694221,0.1283111 0.2626767,0.1798057 0.019177,0.010584 0.023715,0.021609 0.019976,0.043367 -0.030344,0.1764498 -0.058839,0.3532162 -0.088808,0.5297327 -0.00361,0.021242 -5.412e-4,0.031401 0.022216,0.039079 0.1124735,0.037921 0.2244968,0.077283 0.3359127,0.118227 0.023782,0.00874 0.032867,0.00304 0.044275,-0.017595 0.086252,-0.1559739 0.1738935,-0.311173 0.2608027,-0.4667888 0.00884,-0.015838 0.016371,-0.02663 0.039062,-0.022516 0.1080604,0.019552 0.2173357,0.026971 0.3270779,0.025056 0.018661,-3.247e-4 0.02568,0.00627 0.031426,0.022641 0.015855,0.045224 0.033567,0.089799 0.050587,0.1346068 0.050645,0.1333656 0.101315,0.2667146 0.1519766,0.400064 0.1347894,-0.025322 0.2695793,-0.050653 0.4043607,-0.075984 4.33e-4,-0.00684 0.00131,-0.013673 0.00122,-0.020493 -0.00227,-0.1780571 -0.00397,-0.3561224 -0.00767,-0.5341458 -6.328e-4,-0.030435 0.00707,-0.046007 0.037513,-0.056558 0.096178,-0.033358 0.1872001,-0.07869 0.2742591,-0.131309 0.021742,-0.01314 0.034899,-0.00998 0.053243,0.00525 0.1371217,0.1138721 0.2753339,0.2264285 0.41258,0.3401427 0.015855,0.01314 0.025556,0.014839 0.042218,2.079e-4 0.090081,-0.079049 0.1808958,-0.157289 0.2728014,-0.2341895 0.018445,-0.015438 0.017512,-0.026013 0.00643,-0.044475 -0.010944,-0.018232 -0.31919,-0.4518075 -0.2694292,-0.511488 0.033086,-0.1423593 0.1078348,-0.2356524 0.224247,-0.27988 0.1753836,0.03016 0.3510923,0.058431 0.5265102,0.088416 0.0222,0.0038 0.031267,-0.00123 0.038637,-0.023074 0.037571,-0.1113491 0.076317,-0.2223234 0.1166029,-0.332715 0.0087,-0.023865 0.00548,-0.034657 -0.017237,-0.047214 C 9.1838923,5.0973215 9.0299673,5.0097213 8.8752098,4.9236279 8.8558826,4.9128776 8.847497,4.9032102 8.8518019,4.878737 8.811327,4.7382755 8.83039,4.6185994 8.9089928,4.5197082 9.0750837,4.458746 9.2404337,4.395752 9.4065495,4.3348646 9.4288244,4.3267045 9.4327297,4.31707 9.4283991,4.2951031 9.4055996,4.1796322 9.3835754,4.0639863 9.3633404,3.9480407 Z M 7.2358828,6.0117631 C 5.3822356,6.3536177 4.8598257,3.4845049 6.7003794,3.1411011 8.5459318,2.7967644 9.0898848,5.669836 7.2358828,6.0117631 Z"
   id="path24" />
	<path
   style="fill:#ffffff"
   class="st0"
   d="m 6.3735681,7.3656807 c -0.00508,-0.025705 -0.014639,-0.031759 -0.040294,-0.03066 -0.1756258,0.00747 -0.3513346,0.012715 -0.5269933,0.019494 -0.024132,9.327e-4 -0.03768,-0.00407 -0.047672,-0.029761 C 5.7209034,7.2278519 5.673656,7.1352801 5.6175818,7.0476546 5.6040335,7.0264707 5.6063485,7.013164 5.621304,6.9943032 5.7320284,6.8546257 5.8413291,6.7138238 5.9518957,6.5740213 5.9648609,6.5576334 5.9657683,6.5478077 5.9509878,6.5316782 5.870832,6.4441862 5.7912588,6.3561277 5.7132759,6.2667122 5.6956229,6.2464604 5.6840148,6.2481094 5.6634636,6.2611079 5.5149927,6.35502 5.3654809,6.4472837 5.2169681,6.5411377 5.1958756,6.5544696 5.1815114,6.5564513 5.1604524,6.5395055 5.079247,6.4741969 4.9919548,6.4175477 4.8993998,6.3696589 4.876792,6.3579597 4.87257,6.3451109 4.8760924,6.3214121 4.9021063,6.1465778 4.9260383,5.971427 4.9525013,5.7966676 4.9564734,5.7704706 4.9490957,5.7619605 4.9254136,5.7545161 4.8143392,5.7196507 4.7036061,5.6836028 4.5934315,5.645998 4.5692575,5.637738 4.5586575,5.641718 4.5467415,5.664476 4.4646285,5.8213821 4.3804588,5.9772059 4.2983046,6.1340872 4.2867796,6.1561122 4.2746146,6.1618492 4.2505076,6.1582022 4.1123123,6.2018304 3.9933412,6.1857953 3.893594,6.1100969 3.8289013,5.9454298 3.7621434,5.7815704 3.6972592,5.6169701 c -0.00831,-0.021092 -0.017037,-0.026838 -0.039762,-0.021775 -0.1148881,0.025572 -0.2300343,0.050071 -0.3454887,0.07297 -0.025339,0.00503 -0.032101,0.014214 -0.03101,0.040003 0.00745,0.1756172 0.012441,0.3513513 0.019752,0.5269766 0.00112,0.026913 -0.00625,0.039603 -0.032209,0.049646 -0.09487,0.036714 -0.1855264,0.082663 -0.2711782,0.137629 -0.022675,0.014556 -0.037355,0.014589 -0.05928,-0.00294 C 2.799763,6.3089051 2.6597023,6.2005038 2.5210571,6.0903287 c -0.017895,-0.014214 -0.028112,-0.014106 -0.044958,0.00139 -0.085677,0.078824 -0.17202,0.1569648 -0.2595954,0.233665 -0.020643,0.018086 -0.025106,0.029145 -0.00878,0.054676 0.09522,0.1489124 0.1874499,0.2997317 0.28197,0.4491019 0.012599,0.019918 0.012083,0.032392 -0.00248,0.050611 -0.065084,0.081405 -0.1219494,0.168531 -0.1698382,0.2610779 -0.012324,0.023815 -0.025922,0.02827 -0.050878,0.024548 -0.1760168,-0.026222 -0.3523251,-0.050529 -0.5283503,-0.076675 -0.021292,-0.00316 -0.029469,0.00203 -0.03589,0.022283 -0.035864,0.1131144 -0.072245,0.2260876 -0.1108078,0.338294 -0.00877,0.025531 -0.00147,0.034841 0.019918,0.046073 0.1567814,0.082363 0.3127218,0.166316 0.4695282,0.2486205 0.064657,0.1048484 0.067036,0.2232947 0.00714,0.35534 0.00148,0.029044 -0.00952,0.03937 -0.033392,0.04882 -0.1634513,0.064685 -0.3262948,0.1309013 -0.4898128,0.1954107 -0.076802,0.1147652 -0.06032,0.2438622 0.049446,0.387291 0.00525,0.026772 0.016163,0.030843 0.040952,0.029811 0.1756254,-0.00732 0.3513427,-0.012574 0.526993,-0.019411 0.024415,-9.489e-4 0.037688,0.00469 0.047498,0.029969 0.03763,0.096944 0.084603,0.18964 0.1407018,0.277257 0.01379,0.021543 0.010484,0.034716 -0.00424,0.053293 -0.1107163,0.139678 -0.2201002,0.2804213 -0.330725,0.4201736 -0.01294,0.016337 -0.01384,0.02608 9.327e-4,0.042176 0.080972,0.088283 0.1612282,0.1772575 0.2402267,0.2673149 0.015755,0.017953 0.026538,0.016754 0.044633,0.00535 0.1515436,-0.095444 0.30387,-0.1896725 0.4551973,-0.2854671 0.018711,-0.011849 0.030685,-0.011691 0.047756,0.00191 0.083312,0.066382 0.1722782,0.1244469 0.2666733,0.1738262 0.019402,0.010151 0.024198,0.021068 0.020951,0.04291 -0.026347,0.1770906 -0.050837,0.3544477 -0.076809,0.5315977 -0.00313,0.02132 1.664e-4,0.03141 0.023083,0.03856 0.1133058,0.03538 0.2261872,0.0722 0.3385022,0.110608 0.023974,0.0082 0.032933,0.0023 0.043875,-0.01859 0.082696,-0.157889 0.1668155,-0.315029 0.2501774,-0.4725675 0.00849,-0.016029 0.015763,-0.026987 0.038546,-0.023398 0.1084765,0.017112 0.2178853,0.022059 0.3275607,0.01767 0.018652,-7.496e-4 0.025822,0.00568 0.031926,0.021917 0.06701,0.1780875 0.1430416,0.3537115 0.2145963,0.5299655 0.134182,-0.02837 0.2683635,-0.05675 0.4025455,-0.08512 2.747e-4,-0.0068 9.909e-4,-0.01369 7.496e-4,-0.02051 -0.0063,-0.177957 -0.012016,-0.35594 -0.019735,-0.5338298 -0.00132,-0.030419 0.00602,-0.046157 0.036214,-0.057399 0.095403,-0.035522 0.1853848,-0.082895 0.2712283,-0.1374712 0.021442,-0.013631 0.034657,-0.010766 0.053351,0.00406 0.1396527,0.1107407 0.2803712,0.2201414 0.420157,0.330725 0.016155,0.01277 0.02588,0.01426 0.042218,-7.49e-4 C 5.5982786,9.9243725 5.6873035,9.8441002 5.777452,9.765134 5.795538,9.749296 5.794364,9.738738 5.782872,9.720535 5.6878867,9.5701218 5.5942659,9.4188442 5.4988384,9.2686996 c -0.013465,-0.021184 -0.011966,-0.034491 0.00311,-0.053426 0.064918,-0.08153 0.1217661,-0.1686391 0.1697965,-0.2611198 0.011541,-0.022233 0.02399,-0.027337 0.048064,-0.023757 0.1760249,0.026189 0.3523249,0.050479 0.5283751,0.076492 0.022275,0.0033 0.031227,-0.00194 0.038105,-0.02394 C 6.321338,8.8707834 6.35756,8.7589603 6.3953398,8.647677 6.4034998,8.623629 6.4000298,8.612912 6.3770378,8.600872 6.2201509,8.5187254 6.0642858,8.4346304 5.9076123,8.3520594 5.840455,8.2485352 5.8379984,8.1302634 5.9002428,7.9972449 5.8989272,7.9693241 5.9071379,7.9573498 5.9322605,7.947474 6.0969276,7.8827729 6.2608118,7.8160567 6.4255123,7.7514305 6.4475956,7.7427707 6.451293,7.7330527 6.446455,7.7111945 6.4210572,7.5962563 6.3964176,7.4811435 6.3735681,7.3656807 Z M 4.2933083,9.4769669 C 2.4478664,9.8606234 1.8607335,7.0040641 3.693054,6.6191454 5.5303564,6.23318 6.1391053,9.0932169 4.2933083,9.4769669 Z"
   id="path26" />
	<path
   style="fill:#ffffff"
   class="st0"
   d="m 13.725633,10.581174 c -0.0051,-0.02571 -0.01465,-0.03176 -0.0403,-0.03066 -0.175618,0.0075 -0.351334,0.01272 -0.526993,0.01949 -0.02413,9.33e-4 -0.03768,-0.0041 -0.04767,-0.02976 -0.0377,-0.0969 -0.08494,-0.189473 -0.141026,-0.277099 -0.01355,-0.02118 -0.01123,-0.03449 0.0037,-0.05335 0.110724,-0.139677 0.220025,-0.2804794 0.3306,-0.4202814 0.01296,-0.016388 0.01386,-0.026214 -9.16e-4,-0.042343 -0.08016,-0.087492 -0.15973,-0.1755505 -0.237712,-0.264966 -0.01765,-0.020251 -0.02926,-0.018603 -0.04981,-0.0056 -0.148472,0.093912 -0.297983,0.1861763 -0.446496,0.2800303 -0.02109,0.013331 -0.03546,0.015313 -0.05652,-0.00163 -0.08121,-0.065309 -0.168497,-0.1219568 -0.261052,-0.1698465 -0.02261,-0.011699 -0.02683,-0.024548 -0.02331,-0.048246 0.02601,-0.1748343 0.04994,-0.3499851 0.07642,-0.524745 0.004,-0.026197 -0.0034,-0.034707 -0.0271,-0.042143 -0.111075,-0.034874 -0.221808,-0.070913 -0.331983,-0.1085262 -0.02417,-0.00825 -0.03477,-0.00428 -0.04669,0.018477 -0.08211,0.1569061 -0.166283,0.3127308 -0.248438,0.4696121 -0.01153,0.022024 -0.0237,0.027762 -0.0478,0.024115 -0.101757,-0.015371 -0.204346,-0.021059 -0.307118,-0.016112 -0.0275,0.00132 -0.03984,-0.00665 -0.0498,-0.031993 C 11.180957,9.1609232 11.1142,8.9970638 11.049316,8.832472 c -0.0083,-0.021101 -0.01704,-0.026847 -0.03976,-0.021784 -0.114888,0.025572 -0.230035,0.050071 -0.345489,0.072969 -0.02534,0.00503 -0.0321,0.014215 -0.03101,0.040004 0.0075,0.1756163 0.01244,0.3513508 0.01975,0.5269756 0.0011,0.026914 -0.0063,0.039604 -0.03221,0.049646 -0.09487,0.036714 -0.185527,0.082663 -0.271178,0.1376286 -0.02267,0.014556 -0.03736,0.014589 -0.05928,-0.00294 C 10.151819,9.5243965 10.011758,9.4159952 9.873113,9.30582 9.855218,9.291606 9.845001,9.291714 9.828155,9.30721 9.659841,9.360387 9.5703816,9.4565001 9.5597748,9.5955496 c 0.095227,0.1489124 0.187458,0.2997322 0.28197,0.4491024 0.012607,0.01992 0.012091,0.03239 -0.00247,0.05061 -0.065085,0.08141 -0.1219501,0.168531 -0.1698389,0.261078 -0.012332,0.02382 -0.025922,0.02827 -0.050878,0.02455 -0.1760168,-0.02622 -0.3523254,-0.05053 -0.5283508,-0.07668 -0.021292,-0.0032 -0.02947,0.002 -0.03589,0.02228 -0.035865,0.113114 -0.072246,0.226088 -0.1108074,0.338294 -0.00878,0.02553 -0.00147,0.03484 0.019918,0.04607 0.1567726,0.08236 0.3127213,0.166316 0.4695282,0.248621 0.020368,0.01069 0.027079,0.02121 0.023507,0.04487 0.046554,0.14113 0.029966,0.260894 -0.049763,0.359295 -0.00389,0.0015 -0.5278378,0.173212 -0.5133781,0.237229 0.025922,0.114804 0.05037,0.229976 0.073011,0.345471 0.00525,0.02677 0.016163,0.03084 0.040952,0.02981 0.1756258,-0.0073 0.3513432,-0.01257 0.5269938,-0.01941 0.024415,-9.49e-4 0.037688,0.0047 0.047497,0.02997 0.03763,0.09694 0.084603,0.18964 0.1406937,0.277257 0.013798,0.02154 0.010492,0.03472 -0.00423,0.05329 -0.1107169,0.139686 -0.2201005,0.280422 -0.3307334,0.420174 -0.012932,0.01635 -0.013831,0.02608 9.413e-4,0.04218 0.080972,0.08828 0.1612196,0.177266 0.2402258,0.267315 0.04125,0.04703 0.498823,-0.279476 0.49983,-0.280113 0.01871,-0.01185 0.03069,-0.01169 0.04775,0.0019 0.08332,0.06637 0.172286,0.124448 0.266682,0.173819 0.0194,0.01015 0.0242,0.02108 0.02095,0.04291 -0.02635,0.177091 -0.05084,0.354457 -0.07681,0.531597 -0.0031,0.02133 1.67e-4,0.03141 0.02308,0.03857 0.113306,0.03537 0.226187,0.07219 0.338502,0.110599 0.02397,0.0082 0.03293,0.0023 0.04387,-0.01859 0.0827,-0.157881 0.166824,-0.315028 0.250186,-0.472559 0.0085,-0.01604 0.01576,-0.027 0.03855,-0.0234 0.108475,0.0171 0.217885,0.02205 0.32756,0.01766 0.01865,-7.5e-4 0.02581,0.0057 0.03193,0.02192 0.01688,0.04486 0.03559,0.08902 0.05362,0.133432 0.05364,0.132184 0.107319,0.264359 0.160978,0.396534 0.134182,-0.02837 0.268364,-0.05674 0.402546,-0.08511 2.75e-4,-0.0068 9.91e-4,-0.0137 7.49e-4,-0.02052 -0.0063,-0.177956 -0.01202,-0.355939 -0.01974,-0.533829 -0.0013,-0.03042 0.006,-0.04616 0.03621,-0.0574 0.0954,-0.03552 0.185385,-0.0829 0.271228,-0.137471 0.02144,-0.01363 0.03467,-0.01077 0.05335,0.0041 0.139654,0.110741 0.280372,0.220142 0.420158,0.330725 0.01615,0.01277 0.02588,0.01426 0.04222,-7.49e-4 0.08827,-0.08106 0.177291,-0.161337 0.26744,-0.240294 0.01808,-0.01585 0.01691,-0.0264 0.0054,-0.04461 -0.09499,-0.150419 -0.188607,-0.301697 -0.284035,-0.451833 -0.01347,-0.02119 -0.01197,-0.0345 0.0031,-0.05344 0.02986,-0.143073 0.102477,-0.238031 0.217861,-0.284876 0.176025,0.02619 0.352325,0.05048 0.528375,0.07649 0.02227,0.0033 0.03123,-0.0019 0.0381,-0.02394 0.03505,-0.112165 0.07127,-0.223989 0.109051,-0.335271 0.0082,-0.02405 0.0047,-0.03477 -0.0183,-0.04681 -0.156889,-0.08215 -0.312754,-0.16624 -0.469428,-0.248811 -0.06716,-0.103526 -0.06961,-0.221796 -0.0074,-0.354815 -0.0013,-0.02792 0.0069,-0.0399 0.03202,-0.04977 0.164676,-0.0647 0.328552,-0.131418 0.49326,-0.196043 0.02208,-0.0087 0.02577,-0.01838 0.02093,-0.04024 -0.0254,-0.114931 -0.05004,-0.230044 -0.07288,-0.345506 z M 11.645365,12.69246 C 9.799923,13.076117 9.2127848,10.219557 11.04511,9.8346386 12.882413,9.4486742 13.491161,12.30871 11.645365,12.69246 Z"
   id="path28" />
	<path
   style="fill:#ffffff"
   class="st0"
   d="m 5.5503325,11.841737 c -0.00509,-0.02571 -0.014639,-0.03176 -0.040295,-0.03067 -0.1756253,0.0075 -0.3513422,0.01272 -0.5269928,0.0195 -0.024132,9.33e-4 -0.03768,-0.0041 -0.047672,-0.02976 -0.037705,-0.09691 -0.084952,-0.189473 -0.141027,-0.277107 -0.013548,-0.02118 -0.011233,-0.03448 0.00371,-0.05335 0.1107244,-0.139669 0.2200251,-0.280479 0.3305998,-0.420274 0.012965,-0.01639 0.013865,-0.02621 -9.074e-4,-0.04234 -0.080156,-0.08749 -0.1597295,-0.17555 -0.2377119,-0.264974 -0.017662,-0.02024 -0.02927,-0.0186 -0.049812,-0.0056 -0.1484714,0.09391 -0.2979913,0.186184 -0.4464955,0.28003 -0.021092,0.01333 -0.035457,0.01531 -0.056516,-0.0016 -0.081205,-0.06531 -0.1684976,-0.121966 -0.2610526,-0.169855 -0.022608,-0.01169 -0.02683,-0.02455 -0.023307,-0.04824 0.026013,-0.174843 0.049945,-0.349985 0.076417,-0.524752 0.00396,-0.0262 -0.00341,-0.03471 -0.027096,-0.04214 -0.1110744,-0.03487 -0.2218075,-0.07091 -0.3319824,-0.108527 -0.024174,-0.0083 -0.034774,-0.0043 -0.04669,0.01849 -0.082113,0.156898 -0.1662827,0.31273 -0.2484372,0.469612 -0.011533,0.02202 -0.023699,0.02775 -0.047797,0.02411 -0.1017563,-0.01537 -0.2043455,-0.02107 -0.3071177,-0.01611 -0.027496,0.0013 -0.039845,-0.0066 -0.049804,-0.03199 -0.064684,-0.164675 -0.1314423,-0.328534 -0.1963265,-0.493127 -0.00831,-0.0211 -0.017037,-0.02684 -0.039762,-0.02178 -0.1148882,0.02557 -0.2300344,0.05008 -0.3454888,0.07298 -0.025339,0.005 -0.032101,0.01421 -0.03101,0.03999 0.00744,0.175625 0.012441,0.35135 0.019752,0.526985 -0.059053,0.109208 -0.1601825,0.171633 -0.3033872,0.187275 -0.022675,0.01455 -0.037364,0.01458 -0.05928,-0.0029 C 1.9765229,10.78503 1.8364622,10.676637 1.697817,10.566462 c -0.017895,-0.01422 -0.028112,-0.01411 -0.044958,0.0014 -0.085677,0.07882 -0.17202,0.156955 -0.2595954,0.233664 -0.020651,0.01809 -0.025106,0.02914 -0.00878,0.05468 0.095228,0.148912 0.1874583,0.299732 0.2819701,0.449102 0.012607,0.01991 0.012091,0.03239 -0.00247,0.0506 -0.065092,0.08141 -0.1219494,0.168539 -0.1698383,0.261077 -0.012332,0.02382 -0.025922,0.02827 -0.050878,0.02456 -0.1760168,-0.02622 -0.3523252,-0.05053 -0.5283504,-0.07668 -0.0212922,-0.0032 -0.0294694,0.002 -0.0358895,0.02228 -0.0358646,0.113107 -0.0722454,0.226087 -0.1108079,0.338294 -0.008777,0.02553 -0.001474,0.03484 0.0199183,0.04607 0.4333016,0.22764 0.4531929,0.141453 0.4766645,0.603951 0.00147,0.02905 -0.00953,0.03938 -0.033391,0.04882 -0.0039,0.0015 -0.5278406,0.173205 -0.5133784,0.237237 0.0259221,0.114805 0.0503703,0.229976 0.0730115,0.345472 0.005246,0.02677 0.0161628,0.03084 0.0409524,0.02981 0.1756255,-0.0073 0.3513426,-0.01257 0.5269931,-0.01942 0.024415,-9.5e-4 0.03768,0.0047 0.047497,0.02998 0.03763,0.09694 0.084603,0.189631 0.1406935,0.277249 0.013798,0.02155 0.010492,0.03472 -0.00423,0.0533 -0.1107162,0.139678 -0.2201002,0.280421 -0.3307332,0.420174 -0.012932,0.01634 -0.013831,0.02608 9.327e-4,0.04218 0.08098,0.08828 0.1612281,0.177257 0.240235,0.267314 0.015746,0.01795 0.026538,0.01675 0.044625,0.0054 0.151552,-0.09544 0.3038702,-0.189673 0.4552057,-0.285476 0.018703,-0.01184 0.030685,-0.01168 0.047747,0.0019 0.083312,0.06638 0.1722865,0.124447 0.2666817,0.173826 0.019402,0.01015 0.024199,0.02107 0.020951,0.04291 -0.026347,0.17709 -0.050845,0.354448 -0.076817,0.531598 -0.00312,0.02132 1.748e-4,0.03141 0.023091,0.03856 0.113306,0.03538 0.2261872,0.0722 0.3385024,0.110608 0.023973,0.0082 0.032925,0.0023 0.043867,-0.01858 0.082704,-0.15789 0.1668239,-0.315029 0.250186,-0.472568 0.00849,-0.01603 0.015763,-0.02699 0.038546,-0.0234 0.1084762,0.01711 0.217885,0.02206 0.3275604,0.01766 0.018653,-7.42e-4 0.025814,0.0057 0.031926,0.02192 0.016879,0.04485 0.03559,0.08902 0.053618,0.133432 0.053643,0.132183 0.1073189,0.26435 0.1609783,0.396524 0.1341817,-0.02837 0.2683637,-0.05674 0.4025455,-0.08511 2.749e-4,-0.0068 9.911e-4,-0.01369 7.496e-4,-0.02051 -0.0063,-0.177958 -0.012016,-0.35594 -0.019735,-0.533838 -0.00132,-0.03041 0.00602,-0.04615 0.036214,-0.05739 0.095403,-0.03552 0.185385,-0.0829 0.2712281,-0.13747 0.021442,-0.01363 0.034666,-0.01077 0.053351,0.004 -4.935e-4,-3.91e-4 0.418642,0.370128 0.4623756,0.329983 0.088266,-0.08106 0.1772823,-0.161336 0.2674308,-0.240301 0.018094,-0.01584 0.016921,-0.0264 0.00542,-0.0446 -0.094978,-0.15042 -0.1886077,-0.301706 -0.2840271,-0.451843 -0.013465,-0.02118 -0.011966,-0.0345 0.00311,-0.05343 0.029866,-0.143057 0.1024861,-0.238015 0.2178602,-0.284876 0.1760168,0.02619 0.3523254,0.05048 0.5283756,0.0765 0.022275,0.0033 0.031226,-0.0019 0.038096,-0.02394 0.035057,-0.112173 0.071271,-0.223997 0.1090512,-0.335271 0.00817,-0.02406 0.0047,-0.03477 -0.018295,-0.04681 -0.1568894,-0.08215 -0.3127632,-0.166242 -0.4694281,-0.248821 -0.01956,-0.01031 -0.028162,-0.01978 -0.024407,-0.04435 0.015713,-0.102814 0.021917,-0.206561 0.017029,-0.310457 -0.00131,-0.02792 0.0069,-0.0399 0.032026,-0.04977 0.1646671,-0.06471 0.3285518,-0.131417 0.4932523,-0.196044 0.022083,-0.0087 0.025772,-0.01838 0.020942,-0.04024 -0.025397,-0.11493 -0.050037,-0.23005 -0.072886,-0.345505 z m -2.0802598,2.111278 c -1.8395985,0.382461 -2.4408531,-2.471656 -0.6002545,-2.857813 1.8405223,-0.386176 2.4439426,2.474521 0.6002545,2.857813 z"
   id="path30" />
	<path
   style="fill:#ffffff"
   class="st0"
   d="m 13.798686,6.5151076 c -6.67e-4,-0.019618 -0.007,-0.02524 -0.02611,-0.027529 -0.130759,-0.01563 -0.261319,-0.032917 -0.39202,-0.049071 -0.01795,-0.00221 -0.02736,-0.00755 -0.03166,-0.027754 -0.0162,-0.076192 -0.03999,-0.1503282 -0.07089,-0.2218823 -0.02258,-0.052261 0.293645,-0.3002367 0.304253,-0.3099241 0.01157,-0.010559 0.01342,-0.01772 0.0044,-0.031426 -0.04873,-0.074352 -0.09695,-0.1490459 -0.143841,-0.2245636 -0.139297,-0.047162 -0.272646,5.465e-4 -0.400047,0.1431251 -0.0172,0.00731 -0.02806,0.00705 -0.04159,-0.00801 -0.05217,-0.058081 -0.109892,-0.1104832 -0.172562,-0.1570482 -0.0153,-0.011366 -0.01688,-0.021384 -0.01142,-0.038479 0.0403,-0.1261382 0.0791,-0.2527676 0.119719,-0.3787971 0.0061,-0.018894 0.0017,-0.02608 -0.01496,-0.034432 -0.07792,-0.039162 -0.155466,-0.079157 -0.232391,-0.1202421 -0.01689,-0.00901 -0.02521,-0.00735 -0.03676,0.00804 -0.07961,0.1061196 -0.160628,0.2112069 -0.240276,0.3173099 -0.01117,0.014889 -0.02087,0.01767 -0.03825,0.012074 -0.07339,-0.023632 -0.148563,-0.040203 -0.225147,-0.048922 -0.02049,-0.00233 -0.02866,-0.00971 -0.03297,-0.029653 -0.028,-0.1295519 -0.05762,-0.2587543 -0.08576,-0.3882813 -0.0036,-0.016596 -0.0094,-0.0219 -0.02678,-0.020892 -0.08803,0.00506 -0.176124,0.00931 -0.264249,0.012332 -0.01934,6.661e-4 -0.02545,0.00664 -0.02775,0.025839 -0.01565,0.1307597 -0.03313,0.2612944 -0.04889,0.3920369 -0.0024,0.020035 -0.0094,0.028528 -0.0298,0.032825 -0.07458,0.015722 -0.147138,0.038771 -0.217093,0.069098 -0.01852,0.00803 -0.02939,0.00629 -0.04349,-0.00932 -0.08895,-0.098426 -0.179456,-0.1954522 -0.268696,-0.2936196 -0.01152,-0.012666 -0.01909,-0.013814 -0.03341,-0.00439 -0.07285,0.047964 -0.146106,0.095336 -0.2201,0.1415009 -0.01745,0.010884 -0.02208,0.018519 -0.01308,0.039371 0.05247,0.1215744 0.102497,0.2442069 0.154383,0.3660398 0.0069,0.016246 0.005,0.025414 -0.0079,0.037122 -0.05793,0.05236 -0.110475,0.1099253 -0.15704,0.1725864 -0.01198,0.016129 -0.02257,0.017778 -0.04058,0.012024 -3.25e-4,-1.035e-4 -0.390234,-0.1485014 -0.410656,-0.1082015 -0.04015,0.079323 -0.08066,0.1584721 -0.122683,0.2367959 -0.0096,0.01782 -0.0053,0.025581 0.0092,0.036464 0.106002,0.07979 0.211198,0.1606536 0.317226,0.2404017 0.01377,0.010359 0.01747,0.018952 0.01198,0.036006 -0.02388,0.074185 -0.0409,0.1501613 -0.04951,0.2275944 -0.0024,0.021659 -0.01178,0.027971 -0.03058,0.032076 -0.128652,0.028137 -0.257039,0.057481 -0.385716,0.085477 -0.01721,0.00375 -0.02363,0.00899 -0.02247,0.028087 0.0053,0.088017 0.0095,0.1761169 0.01237,0.2642503 6.58e-4,0.020426 0.0082,0.024748 0.02669,0.026971 0.130743,0.015746 0.261302,0.033033 0.392012,0.049138 0.01816,0.00224 0.0273,0.00801 0.03151,0.027887 0.01614,0.076217 0.0397,0.1504111 0.07063,0.2219572 0.0076,0.017587 0.0036,0.026938 -0.0096,0.038896 -0.0987,0.08994 -0.196535,0.1808295 -0.295168,0.2708368 -0.01153,0.010525 -0.01337,0.01762 -0.0044,0.031301 0.04925,0.075035 0.09786,0.1504946 0.145424,0.2265954 0.0095,0.015172 0.0176,0.015588 0.03236,0.00934 0.123557,-0.052319 0.247539,-0.1036468 0.37097,-0.1562486 0.01526,-0.0065 0.0241,-0.00494 0.03508,0.00717 0.05361,0.059122 0.112398,0.1127734 0.176242,0.1606536 0.01313,0.00984 0.01535,0.018503 0.01032,0.034257 -3.03e-4,9.48e-4 -0.15043,0.3940916 -0.108419,0.4151192 0.07952,0.039803 0.158548,0.080631 0.236971,0.1225576 0.01674,0.00895 0.02407,0.00567 0.03467,-0.00845 0.08017,-0.1067772 0.161304,-0.2128382 0.241925,-0.3192835 0.0082,-0.010833 0.01491,-0.018053 0.03132,-0.012656 0.07815,0.025722 0.158455,0.042559 0.240076,0.052527 0.01388,0.00169 0.0184,0.00731 0.02097,0.020052 0.0071,0.035198 0.01559,0.070113 0.02357,0.1051283 0.02374,0.1041965 0.04751,0.2083921 0.07126,0.3125887 0.102631,-0.00481 0.205261,-0.00962 0.307901,-0.014431 10e-4,-0.00503 0.0024,-0.010009 0.003,-0.01508 0.01679,-0.1323414 0.034,-0.2646332 0.04972,-0.3970995 0.0027,-0.02265 0.01002,-0.0334 0.0337,-0.038079 0.07482,-0.014772 0.147056,-0.038954 0.217111,-0.068973 0.0175,-0.00749 0.02692,-0.00378 0.03895,0.00943 0.08992,0.098708 0.180796,0.1965599 0.270829,0.2951679 0.01041,0.011392 0.01742,0.013657 0.03131,0.00453 0.07503,-0.049304 0.150528,-0.097934 0.226695,-0.1454563 0.01529,-0.00953 0.01569,-0.017479 0.0094,-0.032326 -0.05211,-0.122674 -0.103114,-0.2458057 -0.155582,-0.3683214 -0.0074,-0.017287 -0.0047,-0.026946 0.0087,-0.039137 0.05782,-0.052452 0.11035,-0.1100168 0.157007,-0.1726193 0.01122,-0.015039 0.02103,-0.017321 0.0384,-0.011774 0.126995,0.040577 0.254433,0.079773 0.38147,0.1202259 0.01608,0.00511 0.02332,0.00232 0.03106,-0.013115 0.03943,-0.078715 0.07968,-0.1570396 0.121025,-0.2347641 0.0089,-0.016804 0.0077,-0.025139 -0.0079,-0.036814 -0.106103,-0.07964 -0.211224,-0.1606035 -0.317119,-0.2405348 -0.01322,-0.00998 -0.01844,-0.01802 -0.01271,-0.035739 0.02401,-0.074128 0.04109,-0.150095 0.05,-0.2275033 0.0024,-0.020801 0.0099,-0.02867 0.02968,-0.032941 0.129552,-0.028004 0.258771,-0.05759 0.38834,-0.085536 0.01737,-0.00374 0.02127,-0.010484 0.02033,-0.027229 -0.0049,-0.088042 -0.0093,-0.1761339 -0.01226,-0.2642587 z m -1.792553,1.3104921 c -1.422301,0.061849 -1.493692,-2.1217313 -0.09952,-2.1854386 1.391379,-0.06358 1.529545,2.1232466 0.09952,2.1854386 z"
   id="path32" />
	<path
   style="fill:#ffffff"
   class="st0"
   d="m 10.350386,7.8173141 c -0.106795,-0.021151 -0.213314,-0.043667 -0.320025,-0.065242 -0.01466,-0.00296 -0.02208,-0.00796 -0.02434,-0.024873 -0.00853,-0.063835 -0.023449,-0.1264462 -0.0444,-0.187375 -0.00506,-0.01473 -0.00172,-0.022399 0.010026,-0.031568 0.087042,-0.067891 0.173394,-0.1366715 0.260361,-0.2046537 0.0102,-0.00797 0.01217,-0.013748 0.0056,-0.025622 -0.03546,-0.06436 -0.07049,-0.1289773 -0.104355,-0.1941948 -0.0077,-0.014764 -0.0149,-0.015463 -0.02917,-0.010642 -0.103072,0.034832 -0.2065364,0.068523 -0.3096248,0.1033135 -0.014639,0.00494 -0.023574,0.00404 -0.033774,-0.00923 -0.039337,-0.051169 -0.083595,-0.098017 -0.132308,-0.1403604 -0.0119,-0.010342 -0.012557,-0.018694 -0.00698,-0.032442 0.041194,-0.1014233 0.08118,-0.2033381 0.1226406,-0.3046532 0.00621,-0.015188 0.00302,-0.021384 -0.010151,-0.029328 -0.061753,-0.037205 -0.1231318,-0.075077 -0.1839524,-0.1138053 -0.01334,-0.0085 -0.020302,-0.00765 -0.030793,0.0043 -0.072346,0.082438 -0.1457653,0.1639261 -0.2181187,0.246347 -0.010159,0.011567 -0.01832,0.01324 -0.032292,0.00753 -0.058997,-0.024115 -0.1199093,-0.042526 -0.1824865,-0.054559 -0.016738,-0.00322 -0.023008,-0.00982 -0.025298,-0.02653 -0.01488,-0.1085515 -0.031118,-0.2169194 -0.046132,-0.3254623 -0.058333,-0.061457 -0.1381121,-0.069945 -0.2393351,-0.025464 -0.015988,-6.747e-4 -0.0214,0.00386 -0.024507,0.019544 -0.021175,0.1067858 -0.043842,0.2132802 -0.065092,0.3200493 -0.00326,0.016355 -0.00955,0.022916 -0.026639,0.025173 -0.062461,0.00824 -0.1237307,0.02265 -0.1833105,0.043218 -0.015772,0.00545 -0.024615,0.00332 -0.035249,-0.010426 -0.067091,-0.08676 -0.1355562,-0.1724529 -0.2029047,-0.2590127 -0.00869,-0.011175 -0.014864,-0.012598 -0.027263,-0.00574 -0.063078,0.034932 -0.1264543,0.069348 -0.1903724,0.102714 -0.015064,0.00787 -0.019369,0.013873 -0.013266,0.031626 0.035557,0.1035299 0.069032,0.2077761 0.1040964,0.311481 -0.016519,0.074554 -0.066265,0.128694 -0.1492371,0.1624188 -0.0109,0.012532 -0.019727,0.013223 -0.034207,0.00734 -0.1021061,-0.041493 -0.2046619,-0.08188 -0.3067847,-0.1233234 -0.012357,-0.00502 -0.018028,-0.00309 -0.024856,0.00816 -0.038105,0.062844 -0.0765,0.1255217 -0.1161041,0.1874251 -0.00901,0.014081 -0.00598,0.020751 0.00525,0.030635 0.08233,0.07247 0.163918,0.1457734 0.2462721,0.2182183 0.010692,0.00941 0.013198,0.016721 0.00759,0.030436 -0.024374,0.05963 -0.043209,0.1211834 -0.0552,0.1844602 -0.00336,0.017703 -0.011483,0.022308 -0.027238,0.024507 -0.1078182,0.015055 -0.2154951,0.031118 -0.3233385,0.046057 -0.014423,0.002 -0.020035,0.00591 -0.020285,0.021734 -0.00117,0.072887 -0.00328,0.1457649 -0.00652,0.2185846 0.073687,0.096897 0.1871209,0.1266394 0.340301,0.089224 0.014831,0.00299 0.021992,0.00833 0.024207,0.024973 0.00849,0.063844 0.023216,0.1264877 0.044175,0.187417 0.00515,0.01498 0.00124,0.022433 -0.010334,0.03146 -0.087034,0.06789 -0.1734271,0.1366215 -0.2604198,0.2045698 -0.010175,0.00794 -0.012141,0.013673 -0.0056,0.025522 0.03584,0.064959 0.071146,0.1302347 0.1055369,0.1959686 0.00685,0.013106 0.013523,0.013965 0.02608,0.00975 0.1051455,-0.035315 0.2105908,-0.069773 0.315661,-0.1053209 0.01299,-0.0044 0.020176,-0.00256 0.028462,0.00813 0.040444,0.052119 0.085502,0.1000576 0.1351061,0.1435671 0.010193,0.00894 0.011483,0.016212 0.00634,0.028886 -0.041718,0.1027308 -0.082371,0.2059031 -0.1238813,0.3087168 -0.00499,0.012382 -0.00448,0.018928 0.00827,0.026588 0.063019,0.037838 0.1255803,0.076484 0.1875663,0.1160116 0.013231,0.00844 0.019485,0.0062 0.029119,-0.00478 0.072837,-0.082945 0.1464147,-0.1652326 0.2196007,-0.2478618 0.00745,-0.00841 0.013431,-0.013948 0.026613,-0.00845 0.062786,0.026139 0.1279116,0.045099 0.194561,0.058473 0.011342,0.00227 0.014714,0.00719 0.016022,0.017861 0.0036,0.029453 0.00841,0.058765 0.012773,0.088134 0.012981,0.087392 0.025971,0.1747761 0.038962,0.2621679 0.084902,0.00252 0.1698046,0.00505 0.2547073,0.00758 0.00117,-0.00408 0.0026,-0.0081 0.00345,-0.01224 0.0222,-0.1080275 0.044758,-0.2159786 0.066099,-0.324172 0.00365,-0.018495 0.010367,-0.026896 0.030177,-0.029253 0.062612,-0.00744 0.1236821,-0.022807 0.1833201,-0.043118 0.014897,-0.00507 0.022433,-0.00142 0.031518,0.010234 0.067874,0.087051 0.1365881,0.1734438 0.2045622,0.2604198 0.00785,0.010051 0.013497,0.012358 0.025514,0.00572 0.064967,-0.035898 0.1302681,-0.071204 0.1960602,-0.1055622 0.013206,-0.00689 0.014039,-0.013414 0.00978,-0.026055 C 9.6354675,9.068243 9.6012192,8.9635143 9.5657206,8.8592176 c -0.00501,-0.014722 -0.00216,-0.022508 0.00968,-0.031709 0.050978,-0.039578 0.097918,-0.083704 0.140336,-0.13235 0.010192,-0.011691 0.018427,-0.012949 0.0324,-0.00728 0.1021147,0.041477 0.20467,0.081846 0.3068264,0.1232233 0.01292,0.00524 0.01908,0.00339 0.02643,-0.00884 0.03748,-0.062386 0.07561,-0.1243982 0.114604,-0.1858511 0.0084,-0.01329 0.0079,-0.020244 -0.0042,-0.030844 C 10.109393,8.5132046 10.027862,8.439827 9.9456329,8.36724 9.9353739,8.35818 9.9315779,8.351219 9.9374229,8.33698 9.9619049,8.2774 9.9807899,8.2158633 9.9930309,8.1526195 c 0.00328,-0.016995 0.00998,-0.023 0.026539,-0.025273 0.10856,-0.014889 0.216936,-0.031101 0.325504,-0.045939 0.01456,-0.00199 0.01819,-0.00729 0.01848,-0.021159 0.0015,-0.072878 0.0035,-0.1457648 0.0066,-0.2185931 7e-4,-0.016213 -0.0042,-0.021251 -0.01977,-0.02434 z M 8.8097506,8.808465 C 7.6469269,8.7699385 7.7019825,6.9643574 8.8659334,7.0008068 10.029923,7.0372248 9.975071,8.8470726 8.8097506,8.808465 Z"
   id="path34" />
	<path
   style="fill:#ffffff"
   class="st0"
   d="M 3.7602947,17.08234 C 3.6535006,17.06118 3.5469811,17.03867 3.4402786,17.0171 c -0.014664,-0.003 -0.022083,-0.008 -0.024348,-0.02488 -0.00854,-0.06383 -0.023449,-0.126438 -0.0444,-0.187374 -0.00506,-0.01472 -0.00172,-0.02239 0.010034,-0.03156 0.087043,-0.06789 0.1733937,-0.136673 0.2603614,-0.204655 0.010192,-0.008 0.012174,-0.01376 0.00564,-0.02562 -0.00545,-0.113369 -0.049954,-0.18165 -0.1335242,-0.204846 -0.1030803,0.03483 -0.2065353,0.06852 -0.3096323,0.103321 -0.014639,0.0049 -0.023574,0.004 -0.033775,-0.0092 -0.039329,-0.05116 -0.083595,-0.09801 -0.1323082,-0.140352 -0.011891,-0.01034 -0.012557,-0.01869 -0.00697,-0.03244 0.041194,-0.101423 0.08118,-0.203337 0.1226323,-0.304661 0.00622,-0.01518 0.00302,-0.02138 -0.010142,-0.02932 -0.061762,-0.03721 -0.1231401,-0.07508 -0.1839526,-0.113805 -0.013348,-0.0085 -0.02031,-0.0077 -0.030802,0.0043 -0.072337,0.08243 -0.1457562,0.163926 -0.2181182,0.246338 -0.010159,0.01157 -0.01832,0.01325 -0.032292,0.0075 -0.058997,-0.02411 -0.1199093,-0.04253 -0.1824787,-0.05456 -0.016746,-0.0032 -0.023016,-0.0098 -0.025306,-0.02653 -0.054215,-0.395523 0.046007,-0.336874 -0.2854674,-0.350935 -0.099371,0.07067 -0.1292369,0.183867 -0.089599,0.339594 -0.00326,0.01636 -0.00954,0.02292 -0.026638,0.02517 -0.062461,0.0082 -0.1237314,0.02265 -0.1833113,0.04322 -0.015771,0.0054 -0.024615,0.0033 -0.035248,-0.01043 -0.067091,-0.08676 -0.1355557,-0.17246 -0.2029048,-0.25902 -0.00869,-0.01117 -0.014855,-0.0126 -0.027263,-0.0057 -0.063077,0.03492 -0.1264544,0.06934 -0.1903644,0.102714 -0.015072,0.0079 -0.019369,0.01387 -0.013273,0.03163 0.035556,0.103531 0.069039,0.207767 0.1041046,0.311474 0.011761,0.03482 -0.1472554,0.184484 -0.1834446,0.169761 -0.1021061,-0.04149 -0.2046702,-0.08187 -0.306793,-0.123323 -0.012349,-0.005 -0.018028,-0.0031 -0.024848,0.0082 -0.0381128,0.06284 -0.0765088,0.125513 -0.1161121,0.187416 -0.00901,0.01408 -0.00597,0.02075 0.005263,0.03064 0.082321,0.07246 0.1639177,0.145774 0.2462637,0.21821 0.0107,0.0094 0.013207,0.01672 0.0076,0.03044 -0.024382,0.05964 -0.043209,0.121193 -0.055208,0.18447 -0.00336,0.01769 -0.011483,0.02231 -0.027229,0.0245 -0.1078184,0.01506 -0.2155036,0.03112 -0.3233387,0.04606 -0.0144224,0.002 -0.0200348,0.0059 -0.020293,0.02173 -0.001166,0.07288 -0.003273,0.145765 -0.00652,0.218584 -7.495e-4,0.01688 0.005221,0.02093 0.020293,0.02392 0.1067692,0.02125 0.2132887,0.04375 0.3200079,0.06529 0.01483,0.003 0.021992,0.0083 0.024207,0.02498 0.00849,0.06384 0.023216,0.126488 0.044183,0.187416 0.00515,0.01498 0.00124,0.02243 -0.010334,0.03146 -0.087042,0.06789 -0.1734355,0.136612 -0.260428,0.204569 -0.0101756,0.0079 -0.0121325,0.01367 -0.005596,0.02551 0.0358396,0.06497 0.0711378,0.130243 0.1055285,0.195976 0.1124928,0.04825 0.2264066,0.01639 0.3417416,-0.09558 0.01299,-0.0044 0.020176,-0.0025 0.028462,0.0081 0.040444,0.05212 0.08551,0.100067 0.1351061,0.143566 0.010201,0.0089 0.011483,0.01622 0.00635,0.02889 -0.041727,0.102739 -0.08238,0.205902 -0.1238813,0.308725 -0.005,0.01237 -0.00449,0.01893 0.00826,0.02659 0.063027,0.03784 0.1255884,0.07648 0.1875749,0.116012 0.013223,0.0084 0.019477,0.0062 0.029111,-0.0048 0.072837,-0.08295 0.1464226,-0.165233 0.2196089,-0.247871 0.00744,-0.0084 0.013423,-0.01394 0.026613,-0.0085 0.062786,0.02614 0.1279116,0.0451 0.1945611,0.05848 0.011333,0.0023 0.014706,0.0072 0.016013,0.01785 0.00361,0.02946 0.00841,0.05877 0.012774,0.08814 0.012982,0.08739 0.02598,0.174776 0.038971,0.262169 0.084902,0.0025 0.1697965,0.005 0.254699,0.0076 0.00117,-0.0041 0.0026,-0.0081 0.00345,-0.01223 0.022208,-0.108027 0.044766,-0.215979 0.0661,-0.324172 0.051563,-0.05998 0.1227317,-0.0841 0.2135053,-0.07237 0.014889,-0.0051 0.022433,-0.0014 0.031509,0.01023 0.067882,0.08705 0.1365883,0.173443 0.2045619,0.260418 0.00786,0.01005 0.013498,0.01236 0.025523,0.0057 0.064959,-0.0359 0.1302681,-0.07121 0.1960599,-0.105563 0.013198,-0.0069 0.014031,-0.01341 0.00978,-0.02606 -0.03519,-0.104402 -0.069447,-0.209124 -0.1049454,-0.313429 -0.005,-0.01471 -0.00217,-0.02251 0.00968,-0.0317 0.050986,-0.03958 0.097926,-0.0837 0.1403356,-0.132351 0.010201,-0.01169 0.018436,-0.01295 0.0324,-0.0073 0.1021144,0.04147 0.2046702,0.08185 0.3068264,0.123214 0.012932,0.0052 0.019077,0.0034 0.02643,-0.0088 0.03748,-0.0624 0.075618,-0.124407 0.1146049,-0.18586 0.00843,-0.01328 0.0079,-0.02023 -0.00417,-0.03084 -0.082429,-0.07235 -0.1639509,-0.145731 -0.2461803,-0.218319 -0.010267,-0.0091 -0.014065,-0.01602 -0.00821,-0.03026 -0.00588,-0.09033 0.021498,-0.160211 0.082138,-0.20964 0.1085594,-0.01488 0.2169359,-0.03109 0.3255038,-0.04593 0.014555,-0.002 0.018194,-0.0073 0.018486,-0.02116 0.0015,-0.07289 0.00349,-0.145766 0.0066,-0.218594 6.91e-4,-0.01621 -0.00417,-0.02125 -0.019777,-0.02434 z M 2.21966,18.073482 c -1.1634462,-0.03855 -1.1033775,-1.843124 0.056191,-1.807659 1.1602908,0.03549 1.1149781,1.846461 -0.056191,1.807659 z"
   id="path36" />
	<path
   style="fill:#ffffff"
   class="st0"
   d="m 8.6816807,10.498694 c -0.1067858,-0.02116 -0.2133055,-0.04367 -0.3200159,-0.06524 -0.014656,-0.003 -0.022083,-0.008 -0.02434,-0.02488 -0.00854,-0.06383 -0.023457,-0.126438 -0.0444,-0.187375 -0.00506,-0.01472 -0.00172,-0.02239 0.010026,-0.03156 0.087042,-0.06789 0.1733932,-0.136671 0.2603617,-0.2046526 0.0102,-0.00797 0.012174,-0.013757 0.00564,-0.025622 C 8.5635025,9.8459954 8.5189985,9.7777142 8.4354286,9.754519 8.3323564,9.78936 8.2288933,9.823042 8.1258039,9.857841 8.1111559,9.862781 8.1022299,9.861871 8.0920299,9.848601 8.0526929,9.797439 8.0084349,9.750592 7.9597219,9.7082488 c -0.0119,-0.010343 -0.012557,-0.018694 -0.00698,-0.032442 0.041194,-0.1014233 0.081181,-0.2033377 0.1226406,-0.3046532 0.00621,-0.015188 0.00302,-0.021392 -0.010151,-0.029327 C 8.0034771,9.3046064 7.9420986,9.2667427 7.881278,9.228014 7.867938,9.219514 7.860977,9.220364 7.850484,9.232314 7.778139,9.314752 7.7047197,9.3962401 7.6323659,9.4786528 c -0.010159,0.011575 -0.01832,0.013248 -0.032292,0.00754 -0.058997,-0.024116 -0.1199093,-0.042526 -0.182487,-0.054559 -0.016737,-0.00322 -0.023007,-0.00982 -0.025297,-0.02653 0.048903,-0.15242 0.026608,-0.2672138 -0.066883,-0.3443804 -0.072878,-0.00139 -0.1457562,-0.00346 -0.2185845,-0.00654 -0.015988,-6.752e-4 -0.0214,0.00386 -0.024507,0.019543 C 7.0611404,9.1805131 7.0384734,9.2869985 7.0172234,9.393768 7.0139634,9.41013 7.0076734,9.416693 6.9905854,9.418949 6.9281244,9.427189 6.8668542,9.44159 6.8072739,9.462167 6.7915029,9.467617 6.7826599,9.465487 6.7720259,9.451742 6.7049269,9.364982 6.6364702,9.279289 6.5691126,9.1927211 c -0.00869,-0.011166 -0.014855,-0.01259 -0.027254,-0.00573 -0.063077,0.034924 -0.1264629,0.069339 -0.1903729,0.1027136 -0.015063,0.00787 -0.019369,0.013873 -0.013273,0.031626 0.035565,0.1035309 0.06904,0.207777 0.1041045,0.3114729 -0.016512,0.074558 -0.066258,0.1286983 -0.1492367,0.1624193 -0.0109,0.01254 -0.019727,0.013231 -0.034208,0.00734 C 6.1567655,9.7610693 6.0542098,9.7206917 5.952087,9.6792393 5.93973,9.6742293 5.934051,9.6761593 5.927231,9.6874093 5.831951,9.7487313 5.7950012,9.8214187 5.8163817,9.9054689 c 0.082329,0.072471 0.1639175,0.1457731 0.2462721,0.2182101 0.010692,0.0094 0.013198,0.01673 0.00759,0.03044 -0.024373,0.05964 -0.043209,0.121191 -0.0552,0.184468 -0.00336,0.0177 -0.011491,0.02231 -0.027237,0.02451 -0.1078186,0.01506 -0.2154956,0.03112 -0.323339,0.04606 -0.014422,0.002 -0.020035,0.0059 -0.020285,0.02173 -0.00117,0.07288 -0.00328,0.145764 -0.00653,0.218584 0.073706,0.09688 0.187139,0.126619 0.340301,0.08922 0.014839,0.003 0.022,0.0083 0.024207,0.02498 0.00849,0.06384 0.023224,0.126488 0.044183,0.187417 0.00515,0.01498 0.00124,0.02243 -0.010334,0.03146 -0.087034,0.06789 -0.1734271,0.136613 -0.2604194,0.20457 -0.010176,0.0079 -0.012141,0.01367 -0.0056,0.02552 0.03584,0.06496 0.071146,0.130235 0.1055369,0.195969 0.00685,0.01311 0.013523,0.01397 0.026072,0.0097 0.1051536,-0.03531 0.2105989,-0.06976 0.3156695,-0.10532 0.01299,-0.0044 0.020168,-0.0025 0.028453,0.0081 0.040453,0.05213 0.08551,0.100065 0.1351147,0.143574 0.010192,0.0089 0.011483,0.01621 0.00634,0.02888 -0.041718,0.102738 -0.082371,0.205902 -0.1238813,0.308724 -0.005,0.01238 -0.00448,0.01893 0.00827,0.02659 0.063019,0.03784 0.1255798,0.07648 0.1875663,0.116012 0.013232,0.0084 0.019486,0.0062 0.02912,-0.0048 0.072836,-0.08295 0.1464143,-0.165234 0.2196002,-0.247871 0.00745,-0.0084 0.013432,-0.01394 0.026613,-0.0085 0.062786,0.02615 0.1279116,0.0451 0.1945615,0.05848 0.011333,0.0023 0.014714,0.0072 0.016013,0.01786 0.00361,0.02945 0.00842,0.05876 0.012782,0.08813 0.012982,0.08739 0.025972,0.174776 0.038962,0.262168 0.084902,0.0025 0.1698046,0.005 0.2547073,0.0076 0.00116,-0.0041 0.0026,-0.0081 0.00345,-0.01224 0.0222,-0.108027 0.044758,-0.215979 0.0661,-0.324172 0.00365,-0.01849 0.010367,-0.0269 0.030177,-0.02925 0.062611,-0.0074 0.1236815,-0.02281 0.18332,-0.04312 0.014897,-0.0051 0.022433,-0.0014 0.031518,0.01023 0.067874,0.08705 0.1365886,0.173444 0.2045622,0.26042 0.00785,0.01005 0.013498,0.01236 0.025514,0.0057 0.064967,-0.0359 0.1302681,-0.0712 0.1960597,-0.105562 0.013199,-0.0069 0.014039,-0.01341 0.00978,-0.02606 -0.03519,-0.104405 -0.069439,-0.209125 -0.1049376,-0.313421 0.017178,-0.07506 0.067182,-0.129745 0.150012,-0.164059 0.010192,-0.01169 0.018428,-0.01295 0.0324,-0.0073 0.1021061,0.04148 0.20467,0.08185 0.3068266,0.123223 0.012923,0.0052 0.019077,0.0034 0.02643,-0.0088 0.037479,-0.0624 0.075609,-0.124406 0.1146049,-0.185859 0.00843,-0.01328 0.0079,-0.02023 -0.00418,-0.03084 -0.08242,-0.07235 -0.1639509,-0.145731 -0.2461796,-0.218318 -0.01026,-0.0091 -0.014056,-0.01602 -0.00821,-0.03026 0.024482,-0.05958 0.043367,-0.121117 0.0556,-0.184361 0.00329,-0.01699 0.00998,-0.02301 0.026547,-0.02527 0.1085596,-0.01489 0.2169361,-0.0311 0.3255033,-0.04594 0.014556,-0.002 0.018195,-0.0073 0.018478,-0.02116 0.0015,-0.07289 0.00349,-0.145765 0.0066,-0.218593 6.907e-4,-0.01621 -0.00417,-0.02125 -0.019777,-0.02434 z M 7.141046,11.489837 C 6.3550891,11.463796 5.9792327,10.463029 6.5513181,9.9264631 7.1204623,9.3926553 8.0988855,9.8296146 8.0736074,10.614124 8.0575027,11.113538 7.6392026,11.506349 7.141046,11.489837 Z"
   id="path38" />
	<path
   style="fill:#ffffff"
   class="st0"
   d="m 9.2223387,12.58535 c -0.05465,-0.01083 -0.1091509,-0.02234 -0.1637592,-0.03338 -0.0075,-0.0015 -0.0113,-0.0041 -0.012458,-0.01273 -0.00436,-0.03266 -0.011999,-0.0647 -0.022716,-0.09588 -0.00259,-0.0075 -8.831e-4,-0.01147 0.00513,-0.01616 0.044541,-0.03474 0.088734,-0.06993 0.1332331,-0.10472 0.00521,-0.0041 0.00623,-0.007 0.00288,-0.01312 -0.018145,-0.03293 -0.036064,-0.066 -0.053401,-0.09937 -0.00392,-0.0076 -0.00762,-0.0079 -0.014922,-0.0055 -0.052744,0.01783 -0.1056871,0.03506 -0.1584387,0.05287 -0.00749,0.0025 -0.012066,0.0021 -0.017287,-0.0047 -0.020126,-0.02618 -0.042776,-0.05015 -0.067698,-0.07182 -0.00609,-0.0053 -0.00643,-0.0096 -0.00357,-0.0166 0.021084,-0.05189 0.041544,-0.104046 0.062761,-0.15589 0.00318,-0.0078 0.00154,-0.01095 -0.0052,-0.01501 -0.031601,-0.01904 -0.06301,-0.03842 -0.094129,-0.05824 -0.00683,-0.0043 -0.010392,-0.0039 -0.015763,0.0022 -0.037013,0.04218 -0.074585,0.08388 -0.1116076,0.126054 -0.0052,0.0059 -0.00938,0.0068 -0.016529,0.0039 -0.030185,-0.01234 -0.061354,-0.02177 -0.09337,-0.02792 -0.00857,-0.0016 -0.011775,-0.005 -0.012949,-0.01357 -0.00762,-0.05555 -0.015929,-0.111008 -0.023607,-0.166549 -0.029861,-0.03143 -0.070686,-0.03577 -0.1224737,-0.01302 -0.00818,-3.5e-4 -0.01095,0.002 -0.012541,0.01 -0.010833,0.05464 -0.022425,0.109135 -0.033308,0.163768 -0.00167,0.0084 -0.00488,0.01172 -0.013623,0.01288 -0.031967,0.0042 -0.063318,0.01159 -0.093803,0.02212 -0.00807,0.0028 -0.012599,0.0017 -0.018037,-0.0053 -0.034332,-0.04439 -0.069364,-0.08824 -0.1038294,-0.132542 -0.00445,-0.0057 -0.0076,-0.0064 -0.013948,-0.0029 -0.032285,0.01787 -0.06471,0.03548 -0.097419,0.05256 -0.00771,0.004 -0.00991,0.0071 -0.00679,0.01618 0.018195,0.05298 0.035323,0.106319 0.053268,0.159387 0.00239,0.0071 0.0013,0.01088 -0.00455,0.0154 -0.02613,0.02021 -0.050154,0.04279 -0.07182,0.06771 -0.00558,0.0064 -0.010092,0.0068 -0.017504,0.0038 -0.052252,-0.02123 -0.1047287,-0.04189 -0.156981,-0.0631 -0.00633,-0.0026 -0.00923,-0.0016 -0.012724,0.0042 -0.019502,0.03215 -0.039146,0.06423 -0.059413,0.0959 -0.0046,0.0072 -0.00306,0.01062 0.00269,0.01567 0.042127,0.03709 0.083878,0.07459 0.1260214,0.111665 0.00547,0.0048 0.00675,0.0086 0.00389,0.01557 -0.012474,0.03052 -0.022108,0.06201 -0.028254,0.0944 -0.00172,0.0091 -0.00587,0.01142 -0.013931,0.01254 -0.055175,0.0077 -0.1102748,0.01592 -0.1654582,0.02356 -0.00738,0.001 -0.010251,0.003 -0.010376,0.01112 -5.994e-4,0.03729 -0.00168,0.07458 -0.00334,0.111848 -3.834e-4,0.0086 0.00267,0.01071 0.010384,0.01224 0.054634,0.01087 0.1091423,0.02239 0.1637511,0.03342 0.00759,0.0015 0.01125,0.0043 0.012383,0.01277 0.00435,0.03268 0.011882,0.06474 0.022608,0.09591 0.00264,0.0077 6.328e-4,0.01147 -0.00529,0.0161 -0.044541,0.03474 -0.088741,0.06991 -0.1332574,0.104679 -0.0052,0.0041 -0.00621,0.007 -0.00286,0.01306 0.018336,0.03324 0.036397,0.06664 0.054001,0.100283 0.00351,0.0067 0.00692,0.0071 0.01334,0.005 0.053809,-0.01807 0.10776,-0.03571 0.1615276,-0.05389 0.00665,-0.0022 0.010326,-0.0013 0.014564,0.0042 0.020701,0.02667 0.043758,0.0512 0.069139,0.07347 0.00521,0.0046 0.00587,0.0083 0.00324,0.01478 -0.021351,0.05257 -0.042152,0.105353 -0.063386,0.157971 -0.00256,0.0063 -0.0023,0.0097 0.00423,0.01361 0.03225,0.01936 0.064259,0.03914 0.095977,0.05936 0.00677,0.0043 0.00997,0.0032 0.014897,-0.0024 0.037272,-0.04244 0.074926,-0.08455 0.1123734,-0.126837 0.00381,-0.0043 0.00687,-0.0071 0.013623,-0.0043 0.032125,0.01337 0.065451,0.02307 0.099558,0.02992 0.0058,0.0012 0.00753,0.0037 0.00819,0.0091 0.00184,0.01507 0.0043,0.03007 0.00654,0.0451 0.00665,0.04472 0.01329,0.08943 0.019935,0.134149 0.043451,0.0013 0.086893,0.0026 0.1303349,0.0039 5.999e-4,-0.0021 0.00133,-0.0041 0.00177,-0.0063 0.044659,-0.217172 -0.012278,-0.150013 0.1430759,-0.202914 0.00762,-0.0026 0.011475,-7.24e-4 0.016129,0.0052 0.034732,0.04454 0.069888,0.08875 0.1046705,0.133258 0.00402,0.0051 0.00691,0.0063 0.013057,0.0029 0.033241,-0.01836 0.066658,-0.03643 0.1003237,-0.05401 0.00676,-0.0035 0.00719,-0.0069 0.005,-0.01333 -0.018003,-0.05343 -0.035531,-0.10701 -0.053701,-0.160387 -0.00256,-0.0075 -0.00111,-0.01152 0.00496,-0.01622 0.026088,-0.02025 0.050103,-0.04283 0.071812,-0.06772 0.00521,-0.006 0.00943,-0.0066 0.01658,-0.0037 0.052252,0.02122 0.1047287,0.04188 0.1570063,0.06305 0.00661,0.0027 0.00976,0.0017 0.013523,-0.0045 0.019177,-0.03193 0.038687,-0.06365 0.058639,-0.0951 0.00431,-0.0068 0.00405,-0.01035 -0.00213,-0.01578 -0.042176,-0.03703 -0.083895,-0.07458 -0.1259718,-0.111715 -0.00525,-0.0046 -0.00719,-0.0082 -0.0042,-0.01549 0.012524,-0.03049 0.022191,-0.06198 0.028454,-0.09434 0.00168,-0.0087 0.0051,-0.01178 0.013581,-0.01293 0.05555,-0.0076 0.1110077,-0.01591 0.1665573,-0.02351 0.00745,-0.001 0.00932,-0.0037 0.00946,-0.01083 7.658e-4,-0.0373 0.00179,-0.07459 0.00338,-0.111857 3.576e-4,-0.0083 -0.00213,-0.01088 -0.010117,-0.01246 z m -0.7883539,0.507175 c -0.5786138,-0.01917 -0.5757155,-0.943904 0.028753,-0.924993 0.2554903,0.008 0.4566631,0.221924 0.4484444,0.476881 -0.00824,0.255557 -0.2222901,0.456563 -0.4771974,0.448112 z"
   id="path40" />
	<path
   style="fill:#ffffff"
   class="st0"
   d="m 1.5736903,14.937079 c -0.054642,-0.01083 -0.1091508,-0.02235 -0.1637511,-0.03339 -0.0075,-0.0015 -0.0113,-0.0041 -0.012457,-0.01272 -0.00437,-0.03267 -0.011999,-0.0647 -0.022716,-0.09589 -0.0026,-0.0075 -8.827e-4,-0.01146 0.00513,-0.01614 0.044541,-0.03474 0.088725,-0.06994 0.1332242,-0.10473 0.00522,-0.0041 0.00624,-0.007 0.00289,-0.01311 -0.018145,-0.03293 -0.036073,-0.066 -0.053401,-0.09937 -0.00393,-0.0076 -0.00763,-0.0079 -0.014922,-0.0055 -0.052743,0.01783 -0.1056868,0.03507 -0.1584386,0.05287 -0.00749,0.0025 -0.012066,0.0021 -0.017287,-0.0047 -0.020126,-0.02618 -0.042776,-0.05015 -0.067699,-0.07182 -0.00609,-0.0053 -0.00643,-0.0096 -0.00357,-0.0166 0.021076,-0.0519 0.041544,-0.104055 0.062752,-0.155899 0.00318,-0.0078 0.00155,-0.01094 -0.00519,-0.01501 -0.031601,-0.01904 -0.063011,-0.03841 -0.094129,-0.05823 -0.00684,-0.0044 -0.010392,-0.0039 -0.015763,0.0022 -0.037014,0.04218 -0.074585,0.08389 -0.1116155,0.126054 -0.0052,0.0059 -0.00937,0.0068 -0.016521,0.0039 -0.0301855,-0.01234 -0.0613619,-0.02176 -0.0933794,-0.02792 -0.008568,-0.0016 -0.0117744,-0.005 -0.0129485,-0.01357 -0.007611,-0.05555 -0.0159213,-0.110999 -0.0235988,-0.166541 -9.826e-4,-0.0071 -0.003239,-0.0095 -0.010617,-0.0097 -0.0372968,-7.09e-4 -0.0745935,-0.0018 -0.1118571,-0.0033 -0.008177,-3.42e-4 -0.01095,0.002 -0.0125405,0.01 -0.0108334,0.05464 -0.022433,0.109133 -0.0333081,0.163776 -0.001665,0.0084 -0.004888,0.01173 -0.0136313,0.01287 -0.0319592,0.0042 -0.0633104,0.01159 -0.0938041,0.02212 -0.008069,0.0028 -0.0125905,0.0017 -0.0180364,-0.0053 -0.0343323,-0.0444 -0.0693642,-0.08825 -0.1038298,-0.13254 -0.004447,-0.0057 -0.007603,-0.0064 -0.0139478,-0.0029 -0.0322756,0.01787 -0.0647094,0.03548 -0.0974097,0.05256 -0.007711,0.004 -0.009909,0.0071 -0.006795,0.01618 0.0181946,0.05298 0.0353316,0.106319 0.053268,0.159388 0.002398,0.0071 0.001307,0.01088 -0.004538,0.0154 -0.0200568,0.04231 -0.0498315,0.06614 -0.0893241,0.07147 -0.0522522,-0.02123 -0.1047291,-0.0419 -0.1569896,-0.06311 -0.00632,-0.0026 -0.009226,-0.0016 -0.0127154,0.0042 -0.0195019,0.03216 -0.0391537,0.06423 -0.0594134,0.0959 -0.004613,0.0072 -0.003056,0.01062 0.00269,0.01568 0.0421265,0.03708 0.0838782,0.07459 0.1260214,0.111666 0.005471,0.0048 0.006753,0.0086 0.00388,0.01557 0.003789,0.04694 -0.0102699,0.08259 -0.0421764,0.106935 -0.0551749,0.0077 -0.1102749,0.01592 -0.1654582,0.02356 -0.0073778,0.001 -0.0102506,0.003 -0.0103838,0.01112 -5.995e-4,0.0373 -0.0016737,0.07459 -0.0033391,0.111857 -3.83e-4,0.0086 0.002673,0.0107 0.0103838,0.01224 0.054642,0.01088 0.1091424,0.02239 0.1637512,0.03341 0.007594,0.0015 0.0112582,0.0043 0.0123906,0.01278 0.004338,0.03267 0.0118827,0.06472 0.0226079,0.0959 0.002631,0.0077 6.329e-4,0.01147 -0.005288,0.0161 -0.0445413,0.03475 -0.0887495,0.06991 -0.1332659,0.104679 -0.0052044,0.0041 -0.0062036,0.007 -0.0028645,0.01306 0.0183445,0.03324 0.0364058,0.06664 0.0540008,0.100282 0.003514,0.0067 0.006928,0.0071 0.0133482,0.005 0.0538093,-0.01806 0.1077601,-0.0357 0.1615278,-0.05389 0.006645,-0.0022 0.0103255,-0.0013 0.014564,0.0042 0.0206927,0.02667 0.0437503,0.0512 0.069131,0.07346 0.005221,0.0046 0.005879,0.0083 0.003248,0.01478 -0.0213505,0.05257 -0.0421515,0.105362 -0.0633937,0.157981 -0.002556,0.0063 -0.00229,0.0097 0.00423,0.0136 0.0322506,0.01937 0.0642597,0.03914 0.0959857,0.05936 0.00677,0.0043 0.009967,0.0032 0.0148971,-0.0024 0.0372718,-0.04244 0.0749183,-0.08455 0.1123734,-0.126838 0.003806,-0.0043 0.00687,-0.0071 0.0136147,-0.0043 0.0321341,0.01337 0.0654588,0.02307 0.0995581,0.02992 0.005804,0.0012 0.007528,0.0037 0.008194,0.0091 0.001849,0.01508 0.004305,0.03008 0.006537,0.04511 0.006645,0.04472 0.0132983,0.08943 0.0199432,0.134148 0.0434422,0.0013 0.0868927,0.0026 0.1303348,0.0039 5.912e-4,-0.0021 0.001324,-0.0041 0.001765,-0.0063 0.0113581,-0.05527 0.0228993,-0.110516 0.0338244,-0.165883 0.001865,-0.0095 0.005304,-0.01376 0.0154383,-0.01497 0.0374828,-0.0259 0.0741273,-0.03152 0.1099335,-0.01683 0.034732,0.04455 0.069897,0.08876 0.1046792,0.133266 0.00401,0.0051 0.0069,0.0063 0.013057,0.0029 0.033242,-0.01837 0.066658,-0.03643 0.1003242,-0.05402 0.024657,-0.05717 0.00842,-0.11507 -0.048696,-0.17371 -0.00256,-0.0075 -0.00111,-0.01152 0.00495,-0.01622 0.02608,-0.02026 0.050104,-0.04283 0.071804,-0.06773 0.00522,-0.006 0.00943,-0.0066 0.016579,-0.0037 0.052252,0.02123 0.1047375,0.04189 0.1570063,0.06305 0.00662,0.0027 0.00977,0.0017 0.013523,-0.0045 0.019177,-0.03193 0.038696,-0.06366 0.058647,-0.0951 0.00431,-0.0068 0.00405,-0.01036 -0.00214,-0.01578 -0.042176,-0.03703 -0.083895,-0.07458 -0.1259714,-0.111724 -0.00525,-0.0046 -0.00719,-0.0082 -0.0042,-0.01548 0.012524,-0.03049 0.022192,-0.06198 0.028445,-0.09434 0.00169,-0.0087 0.00511,-0.01177 0.01359,-0.01294 0.05555,-0.0076 0.1110077,-0.01591 0.1665573,-0.0235 0.00745,-10e-4 0.00931,-0.0037 0.00946,-0.01083 7.66e-4,-0.03729 0.00178,-0.07458 0.00338,-0.111857 3.498e-4,-0.0083 -0.00214,-0.01087 -0.010126,-0.01245 z m -0.7883537,0.507175 c -0.255665,-0.0085 -0.456688,-0.22274 -0.4478779,-0.477406 0.008843,-0.255473 0.2219155,-0.455563 0.4766312,-0.447586 0.5791322,0.01812 0.576527,0.945041 -0.0287533,0.924992 z"
   id="path42" />
</g><path
     style="fill:#ffffff"
     class="st0"
     d="m 19.669733,19.911163 c 0.309626,-2.135496 -0.169735,-3.888824 -0.169735,-3.888824 0,0 -2.159374,0.764337 -3.372806,1.753889 -0.771923,-1.883105 -1.949118,-3.07863 -1.949118,-3.07863 0,0 -1.500165,1.703258 -2.085217,3.154193 -1.718566,-1.364769 -3.5196473,-1.829452 -3.5196473,-1.829452 0,0 -0.4181252,2.308393 -0.1417866,3.853712 -1.9874611,-0.261591 -3.5784273,0.150284 -3.5784273,0.150284 0,0 0.9984713,3.014022 2.2188554,3.957014 3.3283538,2.71816 7.0634548,1.479236 7.0634548,1.479236 0,0 -0.0029,-0.01208 -0.0039,-0.01573 7.03e-4,7.02e-4 0.0037,0.0035 0.0041,0.0038 l -2.81e-4,0.0011 c 0,0 0.002,6.33e-4 0.0021,6.33e-4 1.4e-4,1.39e-4 0.0024,0.0022 0.0024,0.0022 l 0.0012,-0.0011 c 0.06166,0.01875 3.987353,1.203178 6.283526,-0.666304 2.314293,-1.884298 3.075329,-4.628654 3.075329,-4.628654 0,0 -2.278265,-0.475779 -3.830116,-0.247336 z"
     id="path46" /><g
     style="fill:#ffffff"
     id="g48">
</g><g
     style="fill:#ffffff"
     id="g50">
</g><g
     style="fill:#ffffff"
     id="g52">
</g><g
     style="fill:#ffffff"
     id="g54">
</g><g
     style="fill:#ffffff"
     id="g56">
</g><g
     style="fill:#ffffff"
     id="g58">
</g></g>
</svg>
