<?xml version="1.0" encoding="utf-8"?>
<!-- Generator: Adobe Illustrator 15.0.0, SVG Export Plug-In . SVG Version: 6.00 Build 0)  -->
<!DOCTYPE svg PUBLIC "-//W3C//DTD SVG 1.1//EN" "http://www.w3.org/Graphics/SVG/1.1/DTD/svg11.dtd">
<svg version="1.1" id="Ebene_1" xmlns="http://www.w3.org/2000/svg" xmlns:xlink="http://www.w3.org/1999/xlink" x="0px" y="0px"
	 width="28.35px" height="28.35px" viewBox="0 0 28.35 28.35" enable-background="new 0 0 28.35 28.35" xml:space="preserve">
<g>
	<defs>
		<rect id="SVGID_1_" y="1.515" width="28.347" height="26.832"/>
	</defs>
	<clipPath id="SVGID_2_">
		<use xlink:href="#SVGID_1_"  overflow="visible"/>
	</clipPath>
	<path clip-path="url(#SVGID_2_)" fill="#24437c" d="M28.349,14.174c0-5.571-3.243-10.342-7.916-12.659l-2.341,6.621
		c1.977,1.288,3.289,3.506,3.289,6.038c0,3.978-3.226,7.206-7.207,7.206c-3.982,0-7.207-3.229-7.207-7.206
		c0-2.532,1.312-4.75,3.288-6.038L7.915,1.515C3.242,3.832,0.001,8.603,0.001,14.174c0,7.826,6.346,14.173,14.173,14.173
		C22.002,28.347,28.349,22,28.349,14.174"/>
</g>
</svg>
