<?xml version="1.0" encoding="utf-8"?>
<!-- Generator: Adobe Illustrator 15.0.0, SVG Export Plug-In . SVG Version: 6.00 Build 0)  -->
<!DOCTYPE svg PUBLIC "-//W3C//DTD SVG 1.1//EN" "http://www.w3.org/Graphics/SVG/1.1/DTD/svg11.dtd">
<svg version="1.1" id="Ebene_1" xmlns="http://www.w3.org/2000/svg" xmlns:xlink="http://www.w3.org/1999/xlink" x="0px" y="0px"
	 width="31.18px" height="31.18px" viewBox="0 0 31.18 31.18" enable-background="new 0 0 31.18 31.18" xml:space="preserve">
<g>
	<path fill="#008D3F" d="M15.591,27.224c6.425,0,11.633-5.208,11.633-11.633c0-6.425-5.208-11.633-11.633-11.633
		c-6.425,0-11.633,5.208-11.633,11.633C3.958,22.016,9.166,27.224,15.591,27.224"/>
	<path fill="#FFFFFF" d="M21.969,17.574H9.212c0,3.131,2.856,5.669,6.378,5.669C19.113,23.243,21.969,20.705,21.969,17.574"/>
</g>
<polygon fill="#FFFFFF" points="11.055,7.542 13.407,14.729 7.268,10.253 14.842,10.253 8.703,14.729 "/>
<polygon fill="#FFFFFF" points="20.126,7.542 22.478,14.729 16.339,10.253 23.913,10.253 17.774,14.729 "/>
</svg>
