<?xml version="1.0" encoding="utf-8"?>
<!-- Generator: Adobe Illustrator 15.0.0, SVG Export Plug-In . SVG Version: 6.00 Build 0)  -->
<!DOCTYPE svg PUBLIC "-//W3C//DTD SVG 1.1//EN" "http://www.w3.org/Graphics/SVG/1.1/DTD/svg11.dtd">
<svg version="1.1" id="Ebene_1" xmlns="http://www.w3.org/2000/svg" xmlns:xlink="http://www.w3.org/1999/xlink" x="0px" y="0px"
	 width="31.18px" height="31.18px" viewBox="0 0 31.18 31.18" enable-background="new 0 0 31.18 31.18" xml:space="preserve">
<g>
	<circle fill="none" stroke="#24437c" stroke-width="2" cx="15.591" cy="15.59" r="14.59"/>
	<path fill="#24437c" d="M16.39,12.686l0.688-2.703c0,0,0.329-2.993-0.516-4.275c-1.425-2.162-2.605-1.229-2.605-1.229L13.883,7.28
		c0,0-0.295,1.524-0.541,2.212c-0.246,0.688-2.752,5.356-2.752,5.356s-0.049,0.197-0.54,0.639c-0.492,0.442-0.737,0.541-0.737,0.541
		v8.305c0,0,0.324,0.574,0.699,0.761c1.032,0.517,1.659,0.517,1.659,0.517h9.436c0,0,1.474,0,1.474-1.572
		c0-1.474-0.885-1.425-0.885-1.425h0.935c0,0,1.474-0.295,1.474-1.622c0-1.475-0.737-1.622-0.737-1.622s1.721-0.049,1.721-1.621
		c0-1.72-1.523-1.868-1.523-1.868s1.474,0,1.474-1.671c0-1.425-1.326-1.523-1.326-1.523H16.39z"/>
	<path fill="#24437c" d="M8.217,24.715c0.214-0.185,0.157-0.556,0.157-0.556v-7.714c0,0,0.009-0.37-0.191-0.59
		c-0.209-0.23-0.479-0.221-0.479-0.221H3.971c0,0.033-0.002,0.065-0.002,0.098C3.969,19.351,5.623,22.583,8.217,24.715"/>
</g>
</svg>
