<?xml version="1.0" encoding="utf-8"?>
<!-- Generator: Adobe Illustrator 15.0.0, SVG Export Plug-In . SVG Version: 6.00 Build 0)  -->
<!DOCTYPE svg PUBLIC "-//W3C//DTD SVG 1.1//EN" "http://www.w3.org/Graphics/SVG/1.1/DTD/svg11.dtd">
<svg version="1.1" id="Ebene_1" xmlns="http://www.w3.org/2000/svg" xmlns:xlink="http://www.w3.org/1999/xlink" x="0px" y="0px"
	 width="31.18px" height="31.18px" viewBox="0 0 31.18 31.18" enable-background="new 0 0 31.18 31.18" xml:space="preserve">
<g>
	<circle fill="none" stroke="#24437c" stroke-width="2" cx="15.591" cy="15.59" r="14.59"/>
	<path fill="#24437c" d="M14.792,18.778l-0.688,2.703c0,0-0.329,2.993,0.516,4.275c1.425,2.162,2.605,1.229,2.605,1.229l0.073-2.801
		c0,0,0.295-1.523,0.541-2.212s2.752-5.356,2.752-5.356s0.049-0.196,0.54-0.639c0.492-0.442,0.736-0.541,0.736-0.541V7.132
		c0,0-0.323-0.574-0.698-0.761c-1.032-0.516-1.659-0.516-1.659-0.516h-9.436c0,0-1.474,0-1.474,1.572
		c0,1.474,0.885,1.425,0.885,1.425H8.551c0,0-1.474,0.295-1.474,1.622c0,1.474,0.737,1.622,0.737,1.622s-1.72,0.049-1.72,1.621
		c0,1.72,1.523,1.868,1.523,1.868s-1.474,0-1.474,1.671c0,1.425,1.327,1.522,1.327,1.522H14.792z"/>
	<path fill="#24437c" d="M22.965,6.75c-0.214,0.184-0.157,0.555-0.157,0.555v7.715c0,0-0.009,0.37,0.19,0.59
		c0.209,0.23,0.479,0.221,0.479,0.221h3.733c0-0.033,0.002-0.065,0.002-0.098C27.213,12.113,25.559,8.881,22.965,6.75"/>
</g>
</svg>
