<?xml version="1.0" encoding="utf-8"?>
<!-- Generator: Adobe Illustrator 15.0.0, SVG Export Plug-In . SVG Version: 6.00 Build 0)  -->
<!DOCTYPE svg PUBLIC "-//W3C//DTD SVG 1.1//EN" "http://www.w3.org/Graphics/SVG/1.1/DTD/svg11.dtd">
<svg version="1.1" id="Ebene_1" xmlns="http://www.w3.org/2000/svg" xmlns:xlink="http://www.w3.org/1999/xlink" x="0px" y="0px"
	 width="31.18px" height="31.18px" viewBox="0 0 31.18 31.18" enable-background="new 0 0 31.18 31.18" xml:space="preserve">
<g>
	<path fill="#3FA535" d="M15.591,27.224c6.425,0,11.633-5.208,11.633-11.633c0-6.425-5.208-11.633-11.633-11.633
		c-6.425,0-11.633,5.208-11.633,11.633C3.958,22.016,9.166,27.224,15.591,27.224"/>
	<path fill="#FFFFFF" d="M21.969,17.574H9.212c0,3.131,2.856,5.669,6.378,5.669C19.113,23.243,21.969,20.705,21.969,17.574"/>
	<circle fill="none" stroke="#3FA535" stroke-width="2" cx="15.591" cy="15.59" r="14.59"/>
	<path fill="#3FA535" d="M24.095,14.031H7.086c0,3.131,3.807,5.669,8.504,5.669S24.095,17.162,24.095,14.031"/>
	<path fill="#FFFFFF" d="M19.092,14.173c0.783,0,1.417-1.269,1.417-2.835c0-1.565-0.634-2.834-1.417-2.834s-1.417,1.269-1.417,2.834
		C17.675,12.904,18.309,14.173,19.092,14.173"/>
	<path fill="#FFFFFF" d="M11.412,14.173c0.783,0,1.417-1.269,1.417-2.835c0-1.565-0.634-2.834-1.417-2.834
		c-0.783,0-1.417,1.269-1.417,2.834C9.995,12.904,10.629,14.173,11.412,14.173"/>
</g>
</svg>
