<?xml version="1.0" encoding="utf-8"?>
<!-- Generator: Adobe Illustrator 15.0.0, SVG Export Plug-In . SVG Version: 6.00 Build 0)  -->
<!DOCTYPE svg PUBLIC "-//W3C//DTD SVG 1.1//EN" "http://www.w3.org/Graphics/SVG/1.1/DTD/svg11.dtd">
<svg version="1.1" id="Ebene_1" xmlns="http://www.w3.org/2000/svg" xmlns:xlink="http://www.w3.org/1999/xlink" x="0px" y="0px"
	 width="31.18px" height="31.18px" viewBox="0 0 31.18 31.18" enable-background="new 0 0 31.18 31.18" xml:space="preserve">
<g>
	<path fill="#8E1632" d="M15.591,27.224c6.425,0,11.633-5.208,11.633-11.633c0-6.425-5.208-11.633-11.633-11.633
		c-6.425,0-11.633,5.208-11.633,11.633C3.958,22.016,9.166,27.224,15.591,27.224"/>
	<path fill="#FFFFFF" d="M11.412,14.173c0.783,0,1.417-1.269,1.417-2.835c0-1.565-0.634-2.834-1.417-2.834
		c-0.783,0-1.417,1.269-1.417,2.834C9.995,12.904,10.629,14.173,11.412,14.173"/>
	<path fill="#FFFFFF" d="M9.234,22.535c0.114-3.042,2.907-5.481,6.357-5.481s6.242,2.439,6.356,5.481
		c-1.559-1.179-3.814-1.938-6.356-1.938C13.048,20.597,10.792,21.356,9.234,22.535"/>
	<path fill="#FFFFFF" d="M19.092,14.173c0.783,0,1.417-1.269,1.417-2.835c0-1.565-0.634-2.834-1.417-2.834s-1.417,1.269-1.417,2.834
		C17.675,12.904,18.309,14.173,19.092,14.173"/>
	<path fill="#8E1632" d="M22.407,7.086H8.773c0,1.566,3.052,2.835,6.817,2.835C19.355,9.922,22.407,8.653,22.407,7.086"/>
</g>
</svg>
